<svg width="55" height="39" viewBox="0 0 55 39" fill="none" xmlns="http://www.w3.org/2000/svg">
<path d="M48.7662 18.8671C51.4613 18.8671 53.2703 20.0557 54.3779 21.5325V0.497313C54.3779 0.101103 53.898 -0.151031 53.5657 0.101103L26.9472 19.0832H27.6487C30.4176 19.0832 31.8205 20.8121 31.8205 22.6851C31.8205 24.1619 31.0452 25.2424 29.9746 25.7107C29.79 25.7827 29.79 26.0349 29.9746 26.1069C31.1929 26.6112 32.0789 27.8718 32.0789 29.3846C32.0789 31.5458 30.6391 33.2387 27.8702 33.2387H20.3018C20.1541 33.2387 20.0065 33.1306 20.0065 32.9505V24.0178L0.181067 38.1733C-0.151203 38.4614 -0.00352856 38.9657 0.439497 38.9657H53.898C54.1564 38.9657 54.341 38.7856 54.341 38.5335V31.3657C52.9011 32.6624 51.0183 33.4908 48.7293 33.4908C44.4467 33.4908 40.9764 30.6093 40.9764 26.1789C41.0133 21.7126 44.5206 18.8671 48.7662 18.8671ZM38.1705 32.9865C38.1705 33.1306 38.0598 33.2387 37.9121 33.2387H35.3647C35.217 33.2387 35.1063 33.1306 35.1063 32.9865V19.3353C35.1063 19.1912 35.217 19.0832 35.3647 19.0832H37.9121C38.0598 19.0832 38.1705 19.1912 38.1705 19.3353V32.9865Z" fill="#34313F"/>
<path d="M23.4008 24.7026H26.9819C28.0157 24.7026 28.6802 24.1263 28.6802 23.2258C28.6802 22.3614 28.0157 21.749 26.9819 21.749H23.2531C23.1793 21.749 23.1055 21.8211 23.1055 21.8931V24.4505C23.1055 24.5945 23.2531 24.7026 23.4008 24.7026Z" fill="#34313F"/>
<path d="M23.4008 30.6094H27.1296C28.2741 30.6094 28.9756 29.9971 28.9756 28.9885C28.9756 28.0881 28.311 27.3677 27.1296 27.3677H23.4008C23.2531 27.3677 23.1055 27.4757 23.1055 27.6558V30.3212C23.1055 30.4653 23.2531 30.6094 23.4008 30.6094Z" fill="#34313F"/>
<path d="M52.0512 23.1531C51.3497 22.2526 50.1683 21.5322 48.7654 21.5322C46.1073 21.5322 44.1875 23.5133 44.1875 26.1787C44.1875 28.8441 46.1073 30.8252 48.7654 30.8252C49.9838 30.8252 51.1282 30.3209 51.7559 29.8166C51.7928 29.7806 51.8297 29.7086 51.8297 29.6365V28.2678C51.8297 28.1597 51.7189 28.0517 51.6082 28.0517H48.3224C48.1378 28.0517 48.0271 27.9076 48.0271 27.7635V25.7465C48.0271 25.5664 48.1747 25.4583 48.3224 25.4583H54.414V22.2526L52.4573 23.2972C52.3096 23.3332 52.125 23.2611 52.0512 23.1531Z" fill="#34313F"/>
</svg>
