<svg width="278" height="62" viewBox="0 0 278 62" fill="none" xmlns="http://www.w3.org/2000/svg">
<path d="M76.3631 29.5439C80.5833 29.5439 83.4161 31.4052 85.1504 33.7177V0.778742C85.1504 0.158317 84.3988 -0.236499 83.8785 0.158318L42.1967 29.8824H43.2951C47.6309 29.8824 49.8277 32.5897 49.8277 35.5226C49.8277 37.8351 48.6137 39.5271 46.9372 40.2604C46.6481 40.3732 46.6481 40.768 46.9372 40.8808C48.8449 41.6704 50.2324 43.6445 50.2324 46.0134C50.2324 49.3976 47.9778 52.0485 43.6419 52.0485H31.7906C31.5594 52.0485 31.3281 51.8793 31.3281 51.5973V37.6095L0.283532 59.7756C-0.236768 60.2268 -0.00552537 61.0164 0.688209 61.0164H84.3988C84.8035 61.0164 85.0926 60.7344 85.0926 60.3396V49.1155C82.8379 51.146 79.8896 52.4433 76.3053 52.4433C69.5992 52.4433 64.1649 47.9311 64.1649 40.9936C64.2227 33.9997 69.7148 29.5439 76.3631 29.5439ZM59.7713 51.6536C59.7713 51.8793 59.5978 52.0485 59.3666 52.0485H55.3776C55.1464 52.0485 54.9729 51.8793 54.9729 51.6536V30.2772C54.9729 30.0516 55.1464 29.8824 55.3776 29.8824H59.3666C59.5978 29.8824 59.7713 30.0516 59.7713 30.2772V51.6536Z" fill="#34313F"/>
<path d="M36.6441 38.6816H42.2518C43.8705 38.6816 44.9111 37.7792 44.9111 36.3691C44.9111 35.0155 43.8705 34.0566 42.2518 34.0566H36.4129C36.2973 34.0566 36.1816 34.1694 36.1816 34.2822V38.2868C36.1816 38.5124 36.4129 38.6816 36.6441 38.6816Z" fill="#34313F"/>
<path d="M36.6441 47.9312H42.4831C44.2752 47.9312 45.3736 46.9724 45.3736 45.3931C45.3736 43.983 44.333 42.855 42.4831 42.855H36.6441C36.4129 42.855 36.1816 43.0242 36.1816 43.3062V47.48C36.1816 47.7056 36.4129 47.9312 36.6441 47.9312Z" fill="#34313F"/>
<path d="M81.5071 36.2559C80.4087 34.8458 78.5588 33.7178 76.3619 33.7178C72.1995 33.7178 69.1934 36.8199 69.1934 40.9937C69.1934 45.1675 72.1995 48.2696 76.3619 48.2696C78.2697 48.2696 80.0619 47.4799 81.0446 46.6903C81.1025 46.6339 81.1603 46.5211 81.1603 46.4083V44.265C81.1603 44.0958 80.9868 43.9266 80.8134 43.9266H75.6682C75.3792 43.9266 75.2057 43.701 75.2057 43.4754V40.3169C75.2057 40.0348 75.437 39.8656 75.6682 39.8656H85.2071V34.8458L82.1431 36.4815C81.9118 36.5379 81.6228 36.4251 81.5071 36.2559Z" fill="#34313F"/>
<path d="M88.7344 40.9936C88.7344 34.1689 93.7639 29.5439 100.239 29.5439C104.459 29.5439 107.176 31.6308 108.795 34.1689C108.91 34.3381 108.853 34.6202 108.621 34.6766L106.02 36.0302C105.846 36.143 105.615 36.0866 105.557 35.9174C104.459 34.2253 102.436 32.9845 100.239 32.9845C95.9029 32.9845 92.6655 36.3122 92.6655 40.9936C92.6655 45.6186 95.9029 49.0027 100.239 49.0027C102.436 49.0027 104.459 47.7619 105.557 46.0698C105.673 45.9006 105.846 45.8442 106.02 45.957L108.621 47.2543C108.853 47.3671 108.91 47.5927 108.795 47.8183C107.118 50.3564 104.401 52.4997 100.239 52.4997C93.7639 52.4433 88.7344 47.7619 88.7344 40.9936Z" fill="#34313F"/>
<path d="M111.051 40.9938C111.051 35.4663 114.288 31.1797 119.144 29.9389C127.411 27.7956 134.985 35.3535 133.192 43.7575C132.094 48.9465 127.874 52.4998 122.266 52.4998C115.676 52.4434 111.051 47.5928 111.051 40.9938ZM129.493 40.9938C129.493 36.4252 126.602 32.9846 122.208 32.9846C117.757 32.9846 114.924 36.4252 114.924 40.9938C114.924 45.5623 117.757 49.0029 122.208 49.0029C126.66 49.0029 129.493 45.5059 129.493 40.9938Z" fill="#34313F"/>
<path d="M157.009 51.7667V34.9024L150.13 51.8795C150.13 51.9359 150.014 51.9923 149.956 51.9923H148.511C148.453 51.9923 148.338 51.9359 148.338 51.8795L141.4 34.9024V51.7667C141.4 51.9359 141.285 52.0487 141.111 52.0487H137.643C137.469 52.0487 137.354 51.9359 137.354 51.7667V30.1082C137.354 29.939 137.469 29.8262 137.643 29.8262H142.614C142.846 29.8262 143.019 29.939 143.135 30.1646L149.205 45.3932L155.217 30.1646C155.275 29.939 155.506 29.8262 155.737 29.8262H160.709C160.883 29.8262 160.998 29.939 160.998 30.1082V51.7667C160.998 51.9359 160.883 52.0487 160.709 52.0487H157.241C157.183 52.0487 157.009 51.9359 157.009 51.7667Z" fill="#34313F"/>
<path d="M196.322 51.6536V30.2771C196.322 30.0515 196.496 29.8823 196.727 29.8823H211.469C211.7 29.8823 211.873 30.0515 211.873 30.2771V32.8716C211.873 33.0972 211.7 33.2665 211.469 33.2665H200.716C200.485 33.2665 200.311 33.4357 200.311 33.6613V38.5683C200.311 38.7939 200.485 38.9631 200.716 38.9631H211.238C211.469 38.9631 211.642 39.1323 211.642 39.3579V41.9524C211.642 42.178 211.469 42.3472 211.238 42.3472H200.716C200.485 42.3472 200.311 42.5164 200.311 42.742V48.1003C200.311 48.3259 200.485 48.4951 200.716 48.4951H211.469C211.7 48.4951 211.873 48.6643 211.873 48.8899V51.4844C211.873 51.71 211.7 51.8792 211.469 51.8792H196.727C196.496 52.0484 196.322 51.8792 196.322 51.6536Z" fill="#34313F"/>
<path d="M230.371 51.8228L225.573 43.9265C225.515 43.8137 225.342 43.7573 225.226 43.7573H221.873C221.642 43.7573 221.468 43.9265 221.468 44.1521V51.6536C221.468 51.8792 221.295 52.0484 221.064 52.0484H217.942C217.711 52.0484 217.537 51.8792 217.537 51.6536V30.2771C217.537 30.0515 217.711 29.8823 217.942 29.8823H227.538C232.048 29.8823 234.996 32.7024 234.996 36.8198C234.996 40.486 232.684 42.5728 230.14 43.1933C229.851 43.2497 229.735 43.5317 229.851 43.8137C230.776 45.2802 233.666 49.7923 234.765 51.428C234.938 51.71 234.765 52.0484 234.418 52.0484H230.776C230.602 52.0484 230.487 51.992 230.371 51.8228ZM230.892 36.7634C230.892 34.6201 229.273 33.2665 227.018 33.2665H221.931C221.7 33.2665 221.526 33.4357 221.526 33.6613V39.9219C221.526 40.1475 221.7 40.3168 221.931 40.3168H227.018C229.273 40.3168 230.892 38.9631 230.892 36.7634Z" fill="#34313F"/>
<path d="M261.938 51.6536V30.2771C261.938 30.0515 262.111 29.8823 262.342 29.8823H277.142C277.373 29.8823 277.547 30.0515 277.547 30.2771V32.928C277.547 33.1537 277.373 33.3229 277.142 33.3229H266.331C266.1 33.3229 265.926 33.4921 265.926 33.7177V38.6811C265.926 38.9067 266.1 39.0759 266.331 39.0759H276.853C277.084 39.0759 277.257 39.2451 277.257 39.4707V42.1216C277.257 42.3472 277.084 42.5164 276.853 42.5164H266.331C266.1 42.5164 265.926 42.6857 265.926 42.9113V48.3259C265.926 48.5515 266.1 48.7207 266.331 48.7207H277.142C277.373 48.7207 277.547 48.8899 277.547 49.1155V51.7664C277.547 51.992 277.373 52.1612 277.142 52.1612H262.342C262.111 52.0484 261.938 51.8792 261.938 51.6536Z" fill="#34313F"/>
<path d="M237.887 40.8808C237.887 34.0561 242.916 29.4312 249.391 29.4312C253.611 29.4312 256.328 31.518 257.947 34.0561C258.063 34.2253 258.005 34.5074 257.774 34.5638L255.172 35.9174C254.999 36.0302 254.768 35.9738 254.71 35.8046C253.611 34.1125 251.588 32.8717 249.391 32.8717C245.055 32.8717 241.818 36.1994 241.818 40.8808C241.818 45.5058 245.055 48.89 249.391 48.89C251.588 48.89 253.611 47.6491 254.71 45.957C254.825 45.7878 254.999 45.7314 255.172 45.8442L257.774 47.1415C258.005 47.2543 258.063 47.4799 257.947 47.7055C256.271 50.2436 253.554 52.3869 249.391 52.3869C242.916 52.3305 237.887 47.7055 237.887 40.8808Z" fill="#34313F"/>
<path d="M186.492 51.7667V34.9024L179.612 51.8795C179.612 51.9359 179.497 51.9923 179.439 51.9923H177.994C177.936 51.9923 177.82 51.9359 177.82 51.8795L170.883 34.9024V51.7667C170.883 51.9359 170.767 52.0487 170.594 52.0487H167.125C166.952 52.0487 166.836 51.9359 166.836 51.7667V30.1082C166.836 29.939 166.952 29.8262 167.125 29.8262H172.097C172.328 29.8262 172.501 29.939 172.617 30.1646L178.687 45.3932L184.7 30.1646C184.757 29.939 184.989 29.8262 185.22 29.8262H190.192C190.365 29.8262 190.481 29.939 190.481 30.1082V51.7667C190.481 51.9359 190.365 52.0487 190.192 52.0487H186.723C186.607 52.0487 186.492 51.9359 186.492 51.7667Z" fill="#34313F"/>
</svg>
