<svg width="97" height="82" viewBox="0 0 97 82" fill="none" xmlns="http://www.w3.org/2000/svg">
<path fill-rule="evenodd" clip-rule="evenodd" d="M67.5401 16.314C69.9426 16.314 71.8906 14.3662 71.8906 11.9636C71.8906 9.56103 69.9426 7.61321 67.5401 7.61321C65.1375 7.61321 63.1897 9.56103 63.1897 11.9636C63.1897 14.3662 65.1375 16.314 67.5401 16.314ZM36.7207 14.986L50.0666 1.64012C51.0847 0.622045 52.4985 3.43505e-05 54.0538 3.43505e-05H73.8481C74.5916 -0.00256111 75.3282 0.14195 76.0155 0.425243C76.7028 0.708537 77.3273 1.12502 77.853 1.65069C78.3787 2.17637 78.7952 2.80085 79.0785 3.48818C79.3618 4.1755 79.5063 4.91209 79.5037 5.65551V25.4499C79.5037 27.0052 78.8816 28.4191 77.8353 29.437L64.5098 42.7753L36.7207 14.986Z" fill="#7F7F7F"/>
<path fill-rule="evenodd" clip-rule="evenodd" d="M64.5094 42.7754L48.063 59.2373C47.0166 60.2553 45.6028 60.9057 44.0476 60.9057C42.4924 60.9057 41.0784 60.2553 40.0604 59.2373L20.266 39.4431C19.2197 38.425 18.5977 37.0112 18.5977 35.4559C18.5977 33.8724 19.248 32.4585 20.266 31.4405L36.7204 14.9861L64.5094 42.7754Z" fill="#898989"/>
<path fill-rule="evenodd" clip-rule="evenodd" d="M29.8717 49.0486L20.266 39.4428C19.2197 38.4251 18.5977 37.0111 18.5977 35.4559C18.5977 33.8724 19.248 32.4585 20.266 31.4405L36.7204 14.9861L50.3272 28.5932L29.8717 49.0486Z" fill="#BCBCBC"/>
<path fill-rule="evenodd" clip-rule="evenodd" d="M77.5508 1.36989C76.5221 0.481794 75.2072 -0.00469092 73.8481 3.40979e-05H54.0538C52.4985 3.40979e-05 51.0847 0.622045 50.0666 1.64012L36.7207 14.986L50.3276 28.5931L64.1862 14.7345C63.5408 13.9555 63.1882 12.9752 63.1898 11.9636C63.1898 9.56102 65.1375 7.61321 67.5401 7.61321C68.5517 7.61163 69.5321 7.96414 70.3111 8.60962L77.5508 1.36989Z" fill="#656565"/>
<path d="M50.3191 38.9723C55.1995 38.9723 59.1559 35.0159 59.1559 30.1356C59.1559 25.2552 55.1995 21.2988 50.3191 21.2988C45.4388 21.2988 41.4824 25.2552 41.4824 30.1356C41.4824 35.0159 45.4388 38.9723 50.3191 38.9723Z" fill="#7F7F7F"/>
<path fill-rule="evenodd" clip-rule="evenodd" d="M62.3598 27.5363H50.607V32.5788H57.3721C56.7414 35.7823 54.1043 37.6213 50.607 37.6213C46.4791 37.6213 43.1539 34.1805 43.1539 29.9092C43.1539 25.6378 46.4791 22.1971 50.607 22.1971C52.3843 22.1971 53.9895 22.8497 55.2508 23.9175L58.92 20.1207C56.6841 18.1037 53.8175 16.8579 50.607 16.8579C43.6126 16.8579 37.9941 22.6717 37.9941 29.9092C37.9941 37.1466 43.6126 42.9604 50.607 42.9604C56.9134 42.9604 62.6465 38.2145 62.6465 29.9092C62.6465 29.138 62.5318 28.3074 62.3598 27.5363Z" fill="white"/>
<path d="M47.1135 77.2116C47.6735 77.5745 48.3133 77.7697 48.9669 77.777C50.0275 77.777 50.642 77.1743 50.642 76.3049C50.642 75.4354 50.2158 75.0354 49.1553 74.5874C47.8469 74.086 47.0392 73.3606 47.0392 72.1445C47.0392 70.8003 48.0749 69.8029 49.631 69.8029C50.246 69.7798 50.8563 69.9248 51.4052 70.2243L51.1177 71.131C50.6502 70.8603 50.1273 70.7191 49.5963 70.7203C48.5011 70.7203 48.1096 71.4244 48.1096 72.0111C48.1096 72.8165 48.6052 73.2166 49.7053 73.6753C51.0632 74.2407 51.7521 74.9447 51.7521 76.2088C51.7521 77.473 50.8353 78.6944 48.9471 78.6944C48.2336 78.7096 47.5285 78.5258 46.9004 78.161L47.1135 77.2116Z" fill="#757575"/>
<path d="M52.5605 68.9915H53.7743V73.1199C53.9798 72.7636 54.2803 72.4701 54.6429 72.2715C55.0198 72.0521 55.4482 71.9343 55.8854 71.9298C56.7827 71.9298 58.2208 72.4992 58.2208 74.777V78.6948H57.0359V74.8966C57.0359 73.8317 56.6332 72.9263 55.4885 72.9263C55.1237 72.9305 54.7696 73.0491 54.4771 73.265C54.1846 73.4809 53.9688 73.7829 53.8606 74.1279C53.7957 74.3105 53.7683 74.5041 53.78 74.6973V78.6834H52.5605V68.9915Z" fill="#757575"/>
<path d="M65.4982 75.4158C65.4982 77.7015 63.7884 78.6955 62.2039 78.6955C60.4143 78.6955 59.0293 77.4729 59.0293 75.5062C59.0293 73.4385 60.477 72.2266 62.3122 72.2266C64.1474 72.2266 65.4982 73.5235 65.4982 75.4158ZM60.2433 75.4796C60.2433 76.8297 61.0754 77.8503 62.2552 77.8503C63.435 77.8503 64.2671 76.8404 64.2671 75.453C64.2671 74.3899 63.6972 73.0823 62.2837 73.0823C60.8702 73.0823 60.2433 74.3049 60.2433 75.4796Z" fill="#757575"/>
<path d="M66.3652 74.3891C66.3652 73.5942 66.3652 72.9541 66.3066 72.3672H67.4189L67.4775 73.4342C67.7225 73.0522 68.077 72.7382 68.5029 72.5258C68.9288 72.3134 69.4101 72.2107 69.8953 72.2286C71.5403 72.2286 72.7755 73.4982 72.7755 75.376C72.7755 77.6058 71.2886 78.7047 69.6845 78.7047C69.273 78.7213 68.8637 78.6407 68.4964 78.4705C68.1292 78.3004 67.8165 78.0466 67.5887 77.7338V81.1213H66.3652V74.3891ZM67.5887 76.0428C67.5926 76.197 67.6122 76.3506 67.6473 76.5015C67.7506 76.8785 67.9895 77.2131 68.3258 77.4519C68.6622 77.6908 69.0766 77.82 69.503 77.8192C70.8085 77.8192 71.5696 76.8483 71.5696 75.424C71.5696 74.181 70.8554 73.1194 69.544 73.1194C69.1067 73.1308 68.686 73.2742 68.3479 73.5272C68.0099 73.7802 67.7737 74.1284 67.6765 74.5171C67.6278 74.6662 67.6003 74.8204 67.5946 74.9759L67.5887 76.0428Z" fill="#757575"/>
<path d="M73.6425 74.3891C73.6425 73.5942 73.6425 72.9541 73.584 72.3672H74.6963L74.7548 73.4342C74.9998 73.0522 75.3543 72.7382 75.7802 72.5258C76.2062 72.3134 76.6875 72.2107 77.1726 72.2286C78.8176 72.2286 80.0529 73.4982 80.0529 75.376C80.0529 77.6058 78.5659 78.7047 76.9619 78.7047C76.5502 78.7219 76.1407 78.6414 75.7734 78.4712C75.4061 78.3011 75.0934 78.047 74.8661 77.7338V81.1213H73.6425V74.3891ZM74.8661 76.0428C74.8702 76.197 74.8898 76.3506 74.9246 76.5015C75.0269 76.875 75.2623 77.207 75.5939 77.4454C75.9255 77.6838 76.3346 77.8153 76.757 77.8192C78.0625 77.8192 78.8235 76.8483 78.8235 75.424C78.8235 74.181 78.1093 73.1194 76.7979 73.1194C76.3607 73.1308 75.9399 73.2742 75.6019 73.5272C75.2638 73.7802 75.0276 74.1284 74.9304 74.5171C74.8818 74.6662 74.8542 74.8204 74.8485 74.9759L74.8661 76.0428Z" fill="#757575"/>
<path d="M82.4773 70.5256C82.4773 70.7164 82.3922 70.8993 82.2407 71.0342C82.0892 71.1691 81.8837 71.2449 81.6694 71.2449C81.4552 71.2449 81.2497 71.1691 81.0982 71.0342C80.9467 70.8993 80.8616 70.7164 80.8616 70.5256C80.859 70.4294 80.8785 70.3337 80.9189 70.2443C80.9593 70.155 81.0197 70.074 81.0965 70.0061C81.1732 69.9383 81.2647 69.8851 81.3654 69.8498C81.466 69.8146 81.5737 69.7979 81.6818 69.8009C81.7888 69.7977 81.8954 69.8144 81.9948 69.8499C82.0942 69.8854 82.1841 69.939 82.259 70.0072C82.3338 70.0753 82.3919 70.1567 82.4295 70.2459C82.4671 70.3352 82.4834 70.4305 82.4773 70.5256ZM81.0281 78.6953V72.3155H82.3293V78.6953H81.0281Z" fill="#757575"/>
<path d="M83.3441 74.0785C83.3441 73.4252 83.3441 72.8916 83.2871 72.369H84.353L84.4214 73.4143C84.6384 73.0447 84.957 72.7388 85.3428 72.5296C85.7286 72.3205 86.1669 72.2159 86.6103 72.2274C87.528 72.2274 88.9474 72.7719 88.9474 74.917V78.69H87.7447V75.0422C87.7447 74.0241 87.3456 73.1748 86.2113 73.1748C85.7486 73.189 85.3103 73.376 84.9905 73.6957C84.6707 74.0154 84.495 74.4422 84.5012 74.8843V78.6955H83.3441V74.0785Z" fill="#757575"/>
<path d="M96.2248 72.4032C96.2248 72.8433 96.1649 73.3359 96.1649 74.0747V77.6116C96.1649 79.0055 95.8474 79.8648 95.1706 80.3888C94.4609 80.8982 93.5597 81.1579 92.6429 81.1171C91.8323 81.1282 91.0334 80.9471 90.3309 80.5931L90.6483 79.7495C91.2663 80.0692 91.9729 80.2342 92.6908 80.2264C93.9846 80.2264 94.931 79.6342 94.931 78.099V77.4178C94.6973 77.7435 94.3691 78.0092 93.9798 78.1878C93.5904 78.3664 93.1539 78.4514 92.7148 78.4343C90.9897 78.4343 89.7559 77.1505 89.7559 75.4633C89.7559 73.3988 91.2952 72.2303 92.8885 72.2303C93.3263 72.207 93.7627 72.2932 94.1466 72.4788C94.5305 72.6644 94.8462 72.9416 95.0568 73.2783L95.1167 72.3613L96.2248 72.4032ZM94.919 74.8031C94.9246 74.5869 94.8807 74.372 94.7898 74.171C94.6989 73.9699 94.5629 73.7868 94.3899 73.6325C94.2168 73.4782 94.0102 73.3557 93.7821 73.2724C93.5541 73.1891 93.3093 73.1465 93.0622 73.1473C91.8642 73.1473 90.9897 74.038 90.9897 75.4476C90.9897 76.6423 91.6786 77.6378 93.0442 77.6378C93.436 77.636 93.8171 77.5254 94.1324 77.322C94.4478 77.1186 94.6813 76.8329 94.7992 76.506C94.8683 76.3145 94.9026 76.1147 94.901 75.9139L94.919 74.8031Z" fill="#757575"/>
<path d="M5.53938 68.1831C2.51547 68.1831 0 70.5826 0 73.5358C0 76.489 2.51547 78.8621 5.53938 78.8621C7.17176 78.8621 8.37597 78.3347 9.33934 77.3591C10.3295 76.3835 10.6238 75.0387 10.6238 73.9577C10.6238 73.6149 10.5971 73.2985 10.5436 73.0348H5.53938V74.485H9.0985C8.99146 75.3024 8.72385 75.9089 8.29569 76.3308C7.78724 76.8317 6.95768 77.4118 5.53938 77.4118C3.34504 77.4118 1.63238 75.6716 1.63238 73.5358C1.63238 71.4 3.34504 69.6597 5.53938 69.6597C6.71683 69.6597 7.59992 70.108 8.21541 70.7144L9.25906 69.6861C8.37597 68.8423 7.19852 68.1831 5.53938 68.1831ZM14.6111 72.0064C12.7111 72.0064 11.1323 73.4567 11.1323 75.487C11.1323 77.4909 12.6844 78.9675 14.6111 78.9675C16.5379 78.9675 18.09 77.4909 18.09 75.487C18.09 73.483 16.5111 72.0064 14.6111 72.0064ZM14.6111 77.5964C13.5675 77.5964 12.6576 76.7263 12.6576 75.487C12.6576 74.2477 13.5675 73.3776 14.6111 73.3776C15.6548 73.3776 16.5646 74.2213 16.5646 75.487C16.5646 76.7263 15.6548 77.5964 14.6111 77.5964ZM22.1575 72.0064C20.2308 72.0064 18.6787 73.4567 18.6787 75.487C18.6787 77.4909 20.2308 78.9675 22.1575 78.9675C24.0575 78.9675 25.6364 77.4909 25.6364 75.487C25.6364 73.483 24.0843 72.0064 22.1575 72.0064ZM22.1575 77.5964C21.1139 77.5964 20.204 76.7263 20.204 75.487C20.204 74.2477 21.1139 73.3776 22.1575 73.3776C23.2012 73.3776 24.111 74.2213 24.111 75.487C24.111 76.7263 23.2279 77.5964 22.1575 77.5964ZM29.6772 72.0064C27.9377 72.0064 26.3589 73.5094 26.3589 75.4606C26.3589 77.3855 27.9377 78.8884 29.6772 78.8884C30.5067 78.8884 31.149 78.5193 31.4969 78.0974H31.5504V78.5984C31.5504 79.9168 30.8546 80.6287 29.7039 80.6287C28.7673 80.6287 28.2053 79.9695 27.9645 79.4158L26.6265 79.9695C27.0011 80.8924 28.018 81.9998 29.7039 81.9998C31.4969 81.9998 32.9954 80.9451 32.9954 78.4138V72.2437H31.5504V72.7975H31.4969C31.149 72.3756 30.5067 72.0064 29.6772 72.0064ZM29.811 77.5437C28.7673 77.5437 27.8842 76.6735 27.8842 75.4606C27.8842 74.2477 28.7673 73.3512 29.811 73.3512C30.8546 73.3512 31.6574 74.2477 31.6574 75.4606C31.6574 76.6735 30.8546 77.5437 29.811 77.5437ZM34.1194 68.605H35.6447V78.783H34.1194V68.605ZM39.739 72.0064C37.9193 72.0064 36.394 73.4039 36.394 75.487C36.394 77.4382 37.8926 78.9675 39.8996 78.9675C41.532 78.9675 42.4686 77.9919 42.8432 77.4382L41.639 76.6472C41.2376 77.2273 40.6756 77.5964 39.8996 77.5964C39.0968 77.5964 38.5348 77.2536 38.1869 76.5417L42.9235 74.6168L42.7629 74.2213C42.4686 73.4567 41.5587 72.0064 39.739 72.0064ZM37.9193 75.3815C37.8658 74.0368 38.9897 73.3512 39.7658 73.3512C40.3813 73.3512 40.9165 73.6412 41.077 74.0895L37.9193 75.3815Z" fill="#757575"/>
</svg>
