<svg width="146" height="65" viewBox="0 0 146 65" fill="none" xmlns="http://www.w3.org/2000/svg">
<path d="M34.2375 33.536V42.6492H39.8303C41.16 42.6492 42.2625 42.2 43.1378 41.3014C44.0332 40.4028 44.4809 39.3365 44.4809 38.096C44.4809 36.8822 44.0332 35.8227 43.1378 34.9241C42.2625 33.9987 41.16 33.536 39.8303 33.536H34.2375ZM34.2375 45.8614V56.4298H30.8965V30.3306H39.7568C42.0086 30.3306 43.9196 31.0816 45.4965 32.5904C47.0935 34.0993 47.8954 35.93 47.8954 38.096C47.8954 40.3089 47.0935 42.153 45.4965 43.635C43.9463 45.117 42.0353 45.8614 39.7568 45.8614H34.2375Z" fill="#757575"/>
<path d="M52.5065 50.9574C52.5065 51.8359 52.874 52.5668 53.6157 53.1502C54.3507 53.7337 55.2193 54.022 56.2083 54.022C57.6115 54.022 58.8677 53.4989 59.9702 52.4528C61.0727 51.4134 61.6207 50.1863 61.6207 48.7713C60.5783 47.9465 59.1283 47.5374 57.264 47.5374C55.9076 47.5374 54.7783 47.8593 53.8696 48.5165C52.9609 49.1737 52.5065 49.9918 52.5065 50.9574ZM56.8297 37.9883C59.2953 37.9883 61.2465 38.6455 62.6764 39.9732C64.1063 41.2943 64.8213 43.1116 64.8213 45.4184V56.4294H61.6207V53.9482H61.4803C60.0972 55.9935 58.253 57.0128 55.9544 57.0128C53.9966 57.0128 52.3528 56.4294 51.0364 55.2626C49.7134 54.0958 49.0586 52.6339 49.0586 50.8904C49.0586 49.0395 49.7535 47.571 51.1434 46.4779C52.5399 45.3849 54.3975 44.835 56.7161 44.835C58.7073 44.835 60.3377 45.2038 61.6207 45.928V45.1636C61.6207 43.9967 61.1596 43.011 60.2442 42.1929C59.3221 41.3814 58.2463 40.9724 57.0101 40.9724C55.1458 40.9724 53.6691 41.7637 52.58 43.3396L49.6399 41.482C51.257 39.1484 53.6558 37.9883 56.8297 37.9883Z" fill="#757575"/>
<path d="M89.4434 56.7177C87.9867 56.7177 86.784 56.2684 85.8285 55.3698C84.8729 54.4712 84.3785 53.2172 84.3584 51.6145V41.6295H81.2313V38.5649H84.3584V33.0996H87.6994V38.5649H92.056V41.6295H87.6994V50.5215C87.6994 51.7151 87.9266 52.5198 88.3877 52.949C88.8487 53.3715 89.3699 53.586 89.9512 53.586C90.2185 53.586 90.4791 53.5525 90.733 53.4922C90.9869 53.4318 91.2208 53.3513 91.4413 53.2575L92.4904 56.2483C91.6217 56.5634 90.6061 56.7177 89.4434 56.7177ZM68.5957 38.5649H71.7897V41.4819H71.9367C72.9256 39.202 74.977 38.0552 78.0707 38.0552L78.7656 38.129V41.6295L77.2756 41.4819C75.7253 41.4819 74.4491 41.9648 73.4401 42.9237C72.4378 43.8826 71.9367 45.1031 71.9367 46.5851V56.4293H68.5957V38.5649Z" fill="#757575"/>
<path d="M95.4316 38.565H98.6323V41.0462H98.7726C99.2804 40.1744 100.062 39.4435 101.118 38.86C102.174 38.2766 103.263 37.9883 104.405 37.9883C106.584 37.9883 108.261 38.6119 109.437 39.8592C110.606 41.1132 111.194 42.8903 111.194 45.2038V56.4294H107.853V45.4184C107.78 42.5013 106.317 41.0462 103.463 41.0462C102.127 41.0462 101.011 41.5893 100.116 42.669C99.2203 43.7486 98.7726 45.0429 98.7726 46.5517V56.4294H95.4316V38.565Z" fill="#757575"/>
<path d="M117.77 45.3446H127.973C127.88 44.1107 127.379 43.0847 126.47 42.2666C125.561 41.4552 124.345 41.0462 122.815 41.0462C121.559 41.0462 120.476 41.4351 119.567 42.213C118.659 42.9909 118.057 44.037 117.77 45.3446ZM123.109 57.0128C120.496 57.0128 118.338 56.1142 116.647 54.3104C114.95 52.5132 114.102 50.2466 114.102 47.4972C114.102 44.7746 114.923 42.508 116.574 40.6975C118.218 38.8936 120.322 37.9883 122.888 37.9883C125.528 37.9883 127.633 38.8399 129.189 40.5566C130.753 42.2666 131.535 44.6673 131.535 47.752L131.501 48.1208H117.516C117.563 49.8644 118.144 51.2793 119.26 52.3455C120.369 53.4185 121.706 53.9482 123.256 53.9482C125.387 53.9482 127.058 52.882 128.267 50.7428L131.241 52.198C130.446 53.7068 129.336 54.8871 127.92 55.732C126.503 56.5836 124.9 57.0128 123.109 57.0128Z" fill="#757575"/>
<path d="M137.928 56.4295H134.58V38.5651H137.781V41.4821H137.928C138.262 40.5366 138.957 39.7319 140.013 39.0613C141.068 38.3907 142.104 38.0554 143.12 38.0554C144.088 38.0554 144.91 38.2029 145.585 38.498L144.57 41.7369C144.162 41.5693 143.507 41.4821 142.612 41.4821C141.349 41.4821 140.253 41.9918 139.324 43.0178C138.389 44.0371 137.928 45.224 137.928 46.5853V56.4295Z" fill="#757575"/>
<path d="M38.4689 15.0809V17.3542H43.8947C43.7209 18.796 43.1262 19.9092 42.1173 20.7139C41.1283 21.4984 39.9122 21.8874 38.4689 21.8874C36.7917 21.8874 35.3818 21.2973 34.2326 20.1237C33.0899 18.9569 32.5153 17.5286 32.5153 15.832C32.5153 14.1354 33.0899 12.707 34.2326 11.5402C35.3818 10.3667 36.7917 9.77658 38.4689 9.77658C40.0325 9.77658 41.3956 10.3198 42.5583 11.3994L44.1619 9.7967C42.5516 8.26105 40.6539 7.49658 38.4689 7.49658C36.9855 7.49658 35.5756 7.87882 34.2526 8.63658C32.9429 9.38093 31.9139 10.4069 31.1589 11.7079C30.4172 12.982 30.043 14.3567 30.043 15.832C30.043 17.3207 30.4172 18.7021 31.1589 19.9762C31.9006 21.2637 32.9296 22.283 34.2526 23.0274C35.5756 23.7851 36.9855 24.1674 38.4689 24.1674C40.7074 24.1674 42.5649 23.4633 44.035 22.055C45.4983 20.6535 46.2267 18.8094 46.2267 16.5026C46.2267 15.9594 46.1866 15.4833 46.1064 15.0809H38.4689Z" fill="#767676"/>
<path d="M54.5323 21.1166C53.951 21.7402 53.2427 22.0554 52.4075 22.0554C51.5522 22.0554 50.8372 21.7402 50.2559 21.1166C49.6745 20.4929 49.3872 19.7217 49.3872 18.803C49.3872 17.8508 49.6745 17.0796 50.2559 16.4828C50.8372 15.8592 51.5522 15.5507 52.4075 15.5507C53.2561 15.5507 53.971 15.8592 54.5524 16.4828C55.1337 17.0796 55.421 17.8508 55.421 18.803C55.421 19.7083 55.127 20.4795 54.5323 21.1166ZM52.4075 13.4316C50.8773 13.4316 49.601 13.948 48.5787 14.9807C47.5497 15.9933 47.0352 17.2674 47.0352 18.803C47.0352 20.3052 47.5563 21.5793 48.5921 22.6187C49.6211 23.6514 50.8906 24.1677 52.4075 24.1677C53.9176 24.1677 55.1871 23.6514 56.2095 22.6187C57.2519 21.5793 57.7731 20.3052 57.7731 18.803C57.7731 17.2674 57.2519 15.9933 56.2095 14.9807C55.1871 13.948 53.9176 13.4316 52.4075 13.4316Z" fill="#5C5C5C"/>
<path d="M82.3223 23.8389H84.6677V8.06665H82.3223V23.8389Z" fill="#818181"/>
<path d="M66.2393 21.1166C65.658 21.7402 64.9497 22.0554 64.1078 22.0554C63.2592 22.0554 62.5442 21.7402 61.9629 21.1166C61.3816 20.4929 61.0942 19.7217 61.0942 18.803C61.0942 17.8508 61.3816 17.0796 61.9629 16.4828C62.5442 15.8592 63.2592 15.5507 64.1078 15.5507C64.9631 15.5507 65.6781 15.8592 66.2594 16.4828C66.8407 17.0796 67.128 17.8508 67.128 18.803C67.128 19.7083 66.834 20.4795 66.2393 21.1166ZM64.1078 13.4316C62.5843 13.4316 61.3081 13.948 60.2857 14.9807C59.2567 15.9933 58.7422 17.2674 58.7422 18.803C58.7422 20.3052 59.2634 21.5793 60.3058 22.6187C61.3281 23.6514 62.5977 24.1677 64.1078 24.1677C65.6246 24.1677 66.8942 23.6514 67.9165 22.6187C68.9589 21.5793 69.4801 20.3052 69.4801 18.803C69.4801 17.2674 68.9589 15.9933 67.9165 14.9807C66.8942 13.948 65.6246 13.4316 64.1078 13.4316Z" fill="#B9B9B9"/>
<path d="M88.9433 16.4023C89.5379 15.8055 90.1995 15.5105 90.9278 15.5105C91.3822 15.5105 91.7965 15.611 92.164 15.8256C92.5248 16.0335 92.7787 16.3085 92.9123 16.6438L88.1347 18.6354C88.1013 17.7301 88.3753 16.9858 88.9433 16.4023ZM91.1082 22.0554C89.9322 22.0554 89.0702 21.5122 88.5156 20.4259L95.6653 17.4619L95.4248 16.8516C95.231 16.3487 94.9904 15.886 94.6831 15.4635C94.3824 15.0478 94.0349 14.6856 93.6407 14.3772C93.2464 14.0754 92.8188 13.8407 92.3444 13.6798C91.87 13.5121 91.3755 13.4316 90.8476 13.4316C89.4177 13.4316 88.2149 13.9413 87.2394 14.9606C86.2838 15.9866 85.8027 17.2674 85.8027 18.803C85.8027 20.3186 86.3106 21.5927 87.3195 22.6187C88.3352 23.6514 89.5981 24.1677 91.1082 24.1677C92.9992 24.1677 94.4826 23.3764 95.5651 21.7872L93.7409 20.5667C93.0794 21.5592 92.2041 22.0554 91.1082 22.0554Z" fill="#5C5C5C"/>
<path d="M77.8041 21.1367C77.2495 21.7469 76.5746 22.0554 75.7728 22.0554C74.9375 22.0554 74.2292 21.7402 73.6479 21.1166C73.0799 20.4929 72.7993 19.7284 72.7993 18.8232C72.7993 17.8977 73.0866 17.1266 73.668 16.5029C74.2627 15.8659 74.9643 15.5507 75.7728 15.5507C76.588 15.5507 77.2628 15.8592 77.8041 16.4828C78.352 17.1199 78.6326 17.8977 78.6326 18.8232C78.6326 19.7284 78.352 20.4996 77.8041 21.1367ZM78.4723 14.632H78.3854C77.7105 13.834 76.7751 13.4316 75.5723 13.4316C74.1958 13.4316 72.9931 13.9614 71.9707 15.0209C70.9551 16.0738 70.4473 17.3412 70.4473 18.8232C70.4473 20.285 70.9551 21.5457 71.9707 22.5986C73.0064 23.6447 74.2092 24.1677 75.5723 24.1677C76.7751 24.1677 77.7105 23.7587 78.3854 22.9473H78.4723V23.4971C78.4723 25.7436 77.5168 26.8702 75.6124 26.8702C75.0043 26.8702 74.4631 26.6958 73.9954 26.3404C73.521 25.9917 73.1601 25.529 72.9196 24.959L70.8749 25.8107C71.0754 26.2868 71.336 26.716 71.6433 27.1049C71.9574 27.4871 72.3182 27.8224 72.7258 28.0974C73.1401 28.379 73.5878 28.5936 74.0756 28.7478C74.5633 28.9088 75.0712 28.9825 75.6124 28.9825C77.2094 28.9825 78.4522 28.4997 79.3476 27.5341C80.2497 26.5617 80.6974 25.1803 80.6974 23.3966V13.7602H78.4723V14.632Z" fill="#767676"/>
<path d="M0 65H17.0457V0H0V65Z" fill="#767676"/>
</svg>
