<svg width="81" height="37" viewBox="0 0 81 37" fill="none" xmlns="http://www.w3.org/2000/svg">
<path d="M19.3644 19.1248V24.0984H22.4166C23.1423 24.0984 23.744 23.8532 24.2217 23.3628C24.7104 22.8724 24.9547 22.2905 24.9547 21.6135C24.9547 20.9511 24.7104 20.3728 24.2217 19.8824C23.744 19.3774 23.1423 19.1248 22.4166 19.1248H19.3644ZM19.3644 25.8514V31.6192H17.541V17.3755H22.3765C23.6054 17.3755 24.6484 17.7854 25.509 18.6088C26.3806 19.4323 26.8182 20.4314 26.8182 21.6135C26.8182 22.8212 26.3806 23.8276 25.509 24.6364C24.663 25.4452 23.62 25.8514 22.3765 25.8514H19.3644Z" fill="#757575"/>
<path d="M29.3348 28.6326C29.3348 29.112 29.5354 29.511 29.9402 29.8293C30.3413 30.1477 30.8154 30.3051 31.3551 30.3051C32.1209 30.3051 32.8065 30.0197 33.4082 29.4487C34.0099 28.8815 34.3089 28.2117 34.3089 27.4395C33.74 26.9894 32.9487 26.7661 31.9312 26.7661C31.191 26.7661 30.5747 26.9418 30.0787 27.3005C29.5828 27.6591 29.3348 28.1056 29.3348 28.6326ZM31.6942 21.5547C33.0398 21.5547 34.1047 21.9133 34.8851 22.638C35.6655 23.3589 36.0556 24.3507 36.0556 25.6097V31.619H34.3089V30.2649H34.2323C33.4774 31.3811 32.471 31.9374 31.2165 31.9374C30.148 31.9374 29.2509 31.619 28.5325 30.9822C27.8105 30.3454 27.4531 29.5475 27.4531 28.596C27.4531 27.5859 27.8324 26.7844 28.5909 26.1879C29.353 25.5914 30.3668 25.2913 31.6322 25.2913C32.7189 25.2913 33.6087 25.4926 34.3089 25.8878V25.4706C34.3089 24.8338 34.0573 24.2958 33.5577 23.8493C33.0544 23.4065 32.4673 23.1833 31.7927 23.1833C30.7753 23.1833 29.9693 23.6151 29.3749 24.4752L27.7704 23.4614C28.6529 22.1878 29.962 21.5547 31.6942 21.5547Z" fill="#757575"/>
<path d="M49.4949 31.7758C48.7 31.7758 48.0435 31.5306 47.5221 31.0402C47.0006 30.5498 46.7307 29.8654 46.7198 28.9908V23.5414H45.0131V21.8689H46.7198V18.8862H48.5431V21.8689H50.9208V23.5414H48.5431V28.3942C48.5431 29.0457 48.6671 29.4848 48.9188 29.719C49.1704 29.9496 49.4548 30.0667 49.7721 30.0667C49.918 30.0667 50.0602 30.0484 50.1988 30.0155C50.3373 29.9825 50.465 29.9386 50.5853 29.8874L51.1578 31.5196C50.6838 31.6916 50.1295 31.7758 49.4949 31.7758ZM38.1172 21.8689H39.8603V23.4609H39.9405C40.4803 22.2166 41.5998 21.5908 43.2882 21.5908L43.6675 21.631V23.5414L42.8543 23.4609C42.0082 23.4609 41.3117 23.7244 40.7611 24.2477C40.214 24.7711 39.9405 25.4372 39.9405 26.246V31.6184H38.1172V21.8689Z" fill="#757575"/>
<path d="M52.7617 21.8694H54.5085V23.2235H54.5851C54.8622 22.7478 55.2889 22.3488 55.865 22.0305C56.4412 21.7121 57.0356 21.5547 57.6592 21.5547C58.848 21.5547 59.7633 21.895 60.4052 22.5758C61.0433 23.2601 61.3642 24.23 61.3642 25.4926V31.619H59.5409V25.6097C59.5008 24.0177 58.7022 23.2235 57.145 23.2235C56.4157 23.2235 55.8067 23.52 55.318 24.1092C54.8294 24.6984 54.5851 25.4047 54.5851 26.2282V31.619H52.7617V21.8694Z" fill="#757575"/>
<path d="M64.9532 25.5694H70.5217C70.4706 24.896 70.1971 24.3361 69.7012 23.8896C69.2052 23.4468 68.5415 23.2235 67.7064 23.2235C67.0209 23.2235 66.4301 23.4358 65.9342 23.8603C65.4382 24.2848 65.11 24.8558 64.9532 25.5694ZM67.8669 31.9374C66.441 31.9374 65.2632 31.4469 64.3406 30.4625C63.4143 29.4817 62.9512 28.2447 62.9512 26.7442C62.9512 25.2583 63.3997 24.0213 64.3004 23.0332C65.1975 22.0488 66.3462 21.5547 67.7466 21.5547C69.187 21.5547 70.3357 22.0195 71.1854 22.9564C72.0387 23.8896 72.4654 25.1998 72.4654 26.8833L72.4471 27.0845H64.8146C64.8402 28.0361 65.1574 28.8083 65.7664 29.3902C66.3718 29.9757 67.1011 30.2649 67.9471 30.2649C69.1104 30.2649 70.0221 29.683 70.6821 28.5155L72.3049 29.3097C71.871 30.1331 71.2656 30.7772 70.4925 31.2383C69.7194 31.7031 68.8442 31.9374 67.8669 31.9374Z" fill="#757575"/>
<path d="M75.9539 31.619H74.127V21.8694H75.8737V23.4614H75.9539C76.1362 22.9454 76.5155 22.5062 77.0917 22.1403C77.6678 21.7743 78.233 21.5913 78.7873 21.5913C79.3161 21.5913 79.7646 21.6718 80.1329 21.8329L79.5786 23.6005C79.3562 23.509 78.9988 23.4614 78.5102 23.4614C77.821 23.4614 77.2229 23.7396 76.7161 24.2995C76.2055 24.8558 75.9539 25.5036 75.9539 26.2465V31.619Z" fill="#757575"/>
<path d="M21.6746 9.05371V10.2944H24.6357C24.5409 11.0812 24.2164 11.6887 23.6657 12.1279C23.126 12.5561 22.4623 12.7683 21.6746 12.7683C20.7593 12.7683 19.9899 12.4463 19.3626 11.8058C18.7391 11.169 18.4254 10.3895 18.4254 9.46361C18.4254 8.53769 18.7391 7.75817 19.3626 7.12137C19.9899 6.48092 20.7593 6.15886 21.6746 6.15886C22.528 6.15886 23.2719 6.4553 23.9064 7.04452L24.7816 6.16984C23.9028 5.33176 22.8671 4.91455 21.6746 4.91455C20.8651 4.91455 20.0956 5.12316 19.3736 5.53671C18.6588 5.94294 18.0972 6.50288 17.6852 7.21287C17.2804 7.90822 17.0762 8.65846 17.0762 9.46361C17.0762 10.2761 17.2804 11.03 17.6852 11.7253C18.0899 12.428 18.6515 12.9843 19.3736 13.3905C20.0956 13.8041 20.8651 14.0127 21.6746 14.0127C22.8963 14.0127 23.9101 13.6284 24.7123 12.8598C25.5109 12.095 25.9084 11.0885 25.9084 9.82958C25.9084 9.53314 25.8866 9.2733 25.8428 9.05371H21.6746Z" fill="#767676"/>
<path d="M30.4412 12.3459C30.1239 12.6863 29.7374 12.8583 29.2815 12.8583C28.8148 12.8583 28.4246 12.6863 28.1073 12.3459C27.7901 12.0056 27.6332 11.5847 27.6332 11.0833C27.6332 10.5636 27.7901 10.1428 28.1073 9.81704C28.4246 9.47668 28.8148 9.30833 29.2815 9.30833C29.7447 9.30833 30.1349 9.47668 30.4521 9.81704C30.7694 10.1428 30.9262 10.5636 30.9262 11.0833C30.9262 11.5774 30.7657 11.9982 30.4412 12.3459ZM29.2815 8.15186C28.4465 8.15186 27.7499 8.43366 27.192 8.99725C26.6304 9.54987 26.3496 10.2452 26.3496 11.0833C26.3496 11.9031 26.6341 12.5984 27.1993 13.1657C27.7609 13.7293 28.4537 14.0111 29.2815 14.0111C30.1057 14.0111 30.7986 13.7293 31.3565 13.1657C31.9254 12.5984 32.2098 11.9031 32.2098 11.0833C32.2098 10.2452 31.9254 9.54987 31.3565 8.99725C30.7986 8.43366 30.1057 8.15186 29.2815 8.15186Z" fill="#5C5C5C"/>
<path d="M45.6074 13.8323H46.8874V5.22461H45.6074V13.8323Z" fill="#818181"/>
<path d="M36.8299 12.3459C36.5126 12.6863 36.126 12.8583 35.6666 12.8583C35.2034 12.8583 34.8132 12.6863 34.496 12.3459C34.1787 12.0056 34.0219 11.5847 34.0219 11.0833C34.0219 10.5636 34.1787 10.1428 34.496 9.81704C34.8132 9.47668 35.2034 9.30833 35.6666 9.30833C36.1333 9.30833 36.5235 9.47668 36.8408 9.81704C37.1581 10.1428 37.3149 10.5636 37.3149 11.0833C37.3149 11.5774 37.1544 11.9982 36.8299 12.3459ZM35.6666 8.15186C34.8351 8.15186 34.1386 8.43366 33.5807 8.99725C33.0191 9.54987 32.7383 10.2452 32.7383 11.0833C32.7383 11.9031 33.0227 12.5984 33.5916 13.1657C34.1495 13.7293 34.8424 14.0111 35.6666 14.0111C36.4944 14.0111 37.1872 13.7293 37.7452 13.1657C38.3141 12.5984 38.5985 11.9031 38.5985 11.0833C38.5985 10.2452 38.3141 9.54987 37.7452 8.99725C37.1872 8.43366 36.4944 8.15186 35.6666 8.15186Z" fill="#B9B9B9"/>
<path d="M49.2198 9.77312C49.5444 9.4474 49.9054 9.28637 50.3029 9.28637C50.5508 9.28637 50.7769 9.34127 50.9775 9.45838C51.1744 9.57183 51.313 9.72188 51.3859 9.90487L48.7786 10.9918C48.7603 10.4977 48.9098 10.0915 49.2198 9.77312ZM50.4013 12.8583C49.7595 12.8583 49.2891 12.5618 48.9864 11.969L52.8884 10.3514L52.7571 10.0183C52.6513 9.74384 52.5201 9.49132 52.3523 9.26076C52.1882 9.03385 51.9986 8.83623 51.7834 8.66788C51.5683 8.50319 51.3349 8.3751 51.076 8.28727C50.8171 8.19577 50.5472 8.15186 50.2591 8.15186C49.4787 8.15186 48.8223 8.43 48.2899 8.98628C47.7684 9.54622 47.5059 10.2452 47.5059 11.0833C47.5059 11.9104 47.783 12.6058 48.3337 13.1657C48.888 13.7293 49.5772 14.0111 50.4013 14.0111C51.4333 14.0111 52.2429 13.5792 52.8337 12.7119L51.8381 12.0458C51.4771 12.5875 50.9994 12.8583 50.4013 12.8583Z" fill="#5C5C5C"/>
<path d="M43.1419 12.3569C42.8393 12.6899 42.471 12.8583 42.0334 12.8583C41.5775 12.8583 41.191 12.6863 40.8737 12.3459C40.5637 12.0056 40.4106 11.5883 40.4106 11.0943C40.4106 10.5892 40.5674 10.1684 40.8847 9.82801C41.2092 9.48034 41.5921 9.30833 42.0334 9.30833C42.4782 9.30833 42.8466 9.47668 43.1419 9.81703C43.441 10.1647 43.5941 10.5892 43.5941 11.0943C43.5941 11.5883 43.441 12.0092 43.1419 12.3569ZM43.5066 8.80695H43.4592C43.0909 8.37144 42.5804 8.15186 41.924 8.15186C41.1727 8.15186 40.5163 8.44097 39.9584 9.01921C39.4041 9.59379 39.127 10.2855 39.127 11.0943C39.127 11.8921 39.4041 12.5801 39.9584 13.1547C40.5236 13.7256 41.18 14.0111 41.924 14.0111C42.5804 14.0111 43.0909 13.7878 43.4592 13.345H43.5066V13.6451C43.5066 14.8711 42.9851 15.486 41.9458 15.486C41.614 15.486 41.3186 15.3908 41.0633 15.1968C40.8044 15.0065 40.6075 14.754 40.4762 14.4429L39.3603 14.9077C39.4697 15.1676 39.612 15.4018 39.7797 15.6141C39.9511 15.8227 40.148 16.0056 40.3705 16.1557C40.5966 16.3094 40.8409 16.4265 41.1071 16.5107C41.3733 16.5985 41.6505 16.6388 41.9458 16.6388C42.8174 16.6388 43.4957 16.3753 43.9843 15.8483C44.4766 15.3176 44.721 14.5637 44.721 13.5902V8.33118H43.5066V8.80695Z" fill="#767676"/>
<path d="M0.679688 36.2961H9.98237V0.822266H0.679688V36.2961Z" fill="#767676"/>
</svg>
