<svg width="38" height="46" viewBox="0 0 38 46" fill="none" xmlns="http://www.w3.org/2000/svg">
<path d="M13.0747 4.99706C13.4229 4.09641 13.9017 3.26723 14.6127 2.59532C17.4564 -0.135237 22.1573 0.550976 24.087 3.98204C25.5379 6.58393 27.0758 9.12863 28.5702 11.7019C31.0658 15.9765 33.5903 20.251 36.0568 24.5398C38.1316 28.1281 35.8827 32.66 31.7622 33.2747C29.2376 33.6464 26.8727 32.5027 25.5669 30.2726C23.376 26.5127 21.1707 22.7528 18.9798 19.0072C18.9363 18.9215 18.8783 18.85 18.8202 18.7785C18.5881 18.5926 18.4865 18.321 18.3414 18.078C17.3694 16.391 16.3682 14.7184 15.3961 13.0458C14.7723 11.9593 14.1194 10.8871 13.4955 9.80055C12.9296 8.82842 12.6685 7.7705 12.6975 6.65541C12.741 6.08356 12.8136 5.51172 13.0747 4.99706Z" fill="#808080"/>
<path d="M13.0728 4.99756C12.9422 5.51222 12.8262 6.02688 12.7971 6.57013C12.7536 7.771 13.0583 8.8861 13.6677 9.92971C15.2636 12.6317 16.8596 15.3479 18.4411 18.0642C18.5862 18.3072 18.7023 18.5503 18.8473 18.779C17.9768 20.2658 17.1063 21.7383 16.2212 23.2251C15.0025 25.298 13.7837 27.3852 12.5505 29.4582C12.4924 29.4582 12.4779 29.4296 12.4634 29.3867C12.4489 29.2723 12.4924 29.1723 12.5215 29.0579C13.1163 26.9135 12.623 25.0121 11.1286 23.3823C10.2146 22.3959 9.05384 21.8384 7.71902 21.6525C5.97795 21.4095 4.44001 21.8527 3.06166 22.9249C2.81501 23.1107 2.65541 23.3823 2.36523 23.5253C2.3072 23.5253 2.27818 23.4967 2.26367 23.4538C2.9601 22.2672 3.64202 21.0807 4.33845 19.8941C7.21121 14.9762 10.084 10.0584 12.9712 5.15482C13.0003 5.09763 13.0438 5.05474 13.0728 4.99756Z" fill="#BCBCBC"/>
<path d="M2.32306 23.4964C2.59873 23.2533 2.85989 22.996 3.15007 22.7673C6.67573 20.0224 11.9715 22.0096 12.7404 26.3556C12.9291 27.3992 12.8275 28.3999 12.5083 29.4007C12.4938 29.4864 12.4793 29.5579 12.4503 29.6437C12.3197 29.8724 12.2036 30.1155 12.0585 30.3442C10.7672 32.4457 8.86657 33.4893 6.37104 33.3321C3.51279 33.1319 1.26391 31.0161 0.872168 28.2141C0.683552 26.856 0.959221 25.5836 1.67016 24.4113C1.81525 24.154 1.98935 23.9253 2.14895 23.6679C2.2215 23.6107 2.19248 23.4964 2.32306 23.4964Z" fill="#898989"/>
<path d="M2.32396 23.4957C2.26593 23.5528 2.26593 23.6529 2.16436 23.6672C2.14986 23.5671 2.20789 23.51 2.26593 23.4385L2.32396 23.4957Z" fill="#BCBCBC"/>
<path d="M12.4498 29.6439C12.3918 29.5438 12.4498 29.4724 12.5079 29.4009C12.5224 29.4152 12.5514 29.4438 12.5659 29.4581L12.4498 29.6439Z" fill="#BCBCBC"/>
<path d="M25.334 43.7972L27.2491 38.7793H27.989L29.9042 43.7972H29.1787L28.6855 42.4391H26.5527L26.0594 43.7972H25.334ZM26.7703 41.8387H28.4678L27.6408 39.5799H27.6118L26.7703 41.8387Z" fill="#757575"/>
<path d="M30.5706 43.3826C30.2514 43.0252 30.0918 42.5964 30.0918 42.0817C30.0918 41.5813 30.2514 41.1524 30.5706 40.7807C30.9043 40.4233 31.2815 40.2518 31.7458 40.2518C32.007 40.2518 32.2391 40.309 32.4422 40.409C32.6599 40.5234 32.8195 40.6521 32.9355 40.8379H32.9646L32.9355 40.3662V38.7793H33.5884V43.7972H32.9646V43.3255H32.9355C32.8195 43.497 32.6599 43.64 32.4422 43.7543C32.2246 43.8687 31.9925 43.9116 31.7458 43.9116C31.2815 43.9116 30.8898 43.74 30.5706 43.3826ZM32.6309 42.9823C32.8485 42.7536 32.95 42.4534 32.95 42.0817C32.95 41.7243 32.8485 41.4241 32.6309 41.1953C32.4277 40.9666 32.1666 40.8522 31.8474 40.8522C31.5282 40.8522 31.267 40.9666 31.0639 41.1953C30.8463 41.4241 30.7447 41.7243 30.7447 42.0817C30.7447 42.4391 30.8463 42.7393 31.0639 42.9681C31.2815 43.1968 31.5427 43.3112 31.8474 43.3112C32.1666 43.3255 32.4277 43.2111 32.6309 42.9823Z" fill="#757575"/>
<path d="M36.6088 43.5963C36.3477 43.7964 36.014 43.9108 35.6077 43.9108C35.2595 43.9108 34.9548 43.825 34.6791 43.6392C34.418 43.4533 34.2294 43.2246 34.1133 42.9243L34.6936 42.6813C34.7807 42.8815 34.8968 43.053 35.0709 43.1674C35.2305 43.2817 35.4191 43.3389 35.6077 43.3389C35.8108 43.3389 35.9849 43.296 36.13 43.2103C36.2751 43.1245 36.3331 43.0101 36.3331 42.8958C36.3331 42.6813 36.159 42.5098 35.8253 42.4097L35.2305 42.2667C34.5486 42.0952 34.2148 41.7807 34.2148 41.2946C34.2148 40.9801 34.3454 40.737 34.6066 40.5369C34.8677 40.351 35.2015 40.251 35.5932 40.251C35.8979 40.251 36.1735 40.3225 36.4347 40.4654C36.6814 40.6084 36.8555 40.8085 36.957 41.0516L36.3767 41.2946C36.3041 41.1516 36.2026 41.0373 36.0575 40.9515C35.9124 40.8657 35.7383 40.8228 35.5497 40.8228C35.3756 40.8228 35.2305 40.8657 35.0854 40.9515C34.9548 41.0373 34.8823 41.1373 34.8823 41.266C34.8823 41.4661 35.0709 41.6091 35.4481 41.6806L35.9704 41.8093C36.6669 41.9808 37.0006 42.3239 37.0006 42.8386C37.0151 43.1388 36.87 43.3961 36.6088 43.5963Z" fill="#757575"/>
<path d="M3.61467 38.1733C1.97517 38.1733 0.611328 39.4743 0.611328 41.0755C0.611328 42.6766 1.97517 43.9633 3.61467 43.9633C4.49971 43.9633 5.15261 43.6773 5.67493 43.1484C6.21176 42.6194 6.37136 41.8903 6.37136 41.3042C6.37136 41.1183 6.35685 40.9468 6.32784 40.8038H3.61467V41.5901H5.54435C5.48632 42.0333 5.34123 42.3621 5.10909 42.5908C4.83342 42.8625 4.38364 43.177 3.61467 43.177C2.42494 43.177 1.49637 42.2334 1.49637 41.0755C1.49637 39.9175 2.42494 38.9739 3.61467 38.9739C4.25306 38.9739 4.73186 39.217 5.06556 39.5458L5.63141 38.9882C5.15261 38.5307 4.51422 38.1733 3.61467 38.1733ZM8.53319 40.2463C7.50306 40.2463 6.64703 41.0326 6.64703 42.1334C6.64703 43.2199 7.48855 44.0204 8.53319 44.0204C9.57783 44.0204 10.4193 43.2199 10.4193 42.1334C10.4193 41.0469 9.56332 40.2463 8.53319 40.2463ZM8.53319 43.277C7.96734 43.277 7.47404 42.8053 7.47404 42.1334C7.47404 41.4614 7.96734 40.9897 8.53319 40.9897C9.09904 40.9897 9.59234 41.4471 9.59234 42.1334C9.59234 42.8053 9.09904 43.277 8.53319 43.277ZM12.6247 40.2463C11.5801 40.2463 10.7385 41.0326 10.7385 42.1334C10.7385 43.2199 11.5801 44.0204 12.6247 44.0204C13.6548 44.0204 14.5109 43.2199 14.5109 42.1334C14.5109 41.0469 13.6693 40.2463 12.6247 40.2463ZM12.6247 43.277C12.0589 43.277 11.5655 42.8053 11.5655 42.1334C11.5655 41.4614 12.0589 40.9897 12.6247 40.9897C13.1905 40.9897 13.6838 41.4471 13.6838 42.1334C13.6838 42.8053 13.2051 43.277 12.6247 43.277ZM16.7017 40.2463C15.7586 40.2463 14.9026 41.0612 14.9026 42.1191C14.9026 43.1627 15.7586 43.9776 16.7017 43.9776C17.1515 43.9776 17.4997 43.7774 17.6883 43.5487H17.7173V43.8203C17.7173 44.5351 17.3401 44.9211 16.7162 44.9211C16.2084 44.9211 15.9037 44.5637 15.7731 44.2635L15.0477 44.5637C15.2508 45.0641 15.8021 45.6645 16.7162 45.6645C17.6883 45.6645 18.5008 45.0927 18.5008 43.7202V40.3749H17.7173V40.6752H17.6883C17.4997 40.4464 17.1515 40.2463 16.7017 40.2463ZM16.7742 43.2485C16.2084 43.2485 15.7296 42.7767 15.7296 42.1191C15.7296 41.4614 16.2084 40.9754 16.7742 40.9754C17.3401 40.9754 17.7754 41.4614 17.7754 42.1191C17.7754 42.7767 17.3401 43.2485 16.7742 43.2485ZM19.1102 38.4021H19.9372V43.9204H19.1102V38.4021ZM22.157 40.2463C21.1704 40.2463 20.3434 41.004 20.3434 42.1334C20.3434 43.1913 21.1559 44.0204 22.2441 44.0204C23.1291 44.0204 23.637 43.4915 23.8401 43.1913L23.1872 42.7624C22.9695 43.0769 22.6649 43.277 22.2441 43.277C21.8088 43.277 21.5041 43.0912 21.3155 42.7052L23.8836 41.6616L23.7966 41.4471C23.637 41.0326 23.1437 40.2463 22.157 40.2463ZM21.1704 42.0762C21.1414 41.3471 21.7508 40.9754 22.1716 40.9754C22.5053 40.9754 22.7954 41.1326 22.8825 41.3757L21.1704 42.0762Z" fill="#757575"/>
</svg>
