<svg width="67" height="82" viewBox="0 0 67 82" fill="none" xmlns="http://www.w3.org/2000/svg">
<path d="M22.8358 7.48322C23.4739 5.83292 24.3512 4.31359 25.6539 3.08241C30.8646 -1.92088 39.4782 -0.663507 43.014 5.62335C45.6725 10.3909 48.4905 15.0536 51.2288 19.7688C55.8015 27.6012 60.4273 35.4336 64.9468 43.2921C68.7484 49.8671 64.6277 58.171 57.0775 59.2974C52.4517 59.9785 48.1183 57.8829 45.7257 53.7964C41.7113 46.9071 37.6704 40.0177 33.656 33.1546C33.5762 32.9974 33.4699 32.8664 33.3636 32.7354C32.9382 32.3949 32.7521 31.8972 32.4862 31.4519C30.705 28.3608 28.8707 25.296 27.0895 22.2311C25.9463 20.2403 24.75 18.2757 23.6068 16.2848C22.57 14.5035 22.0914 12.5651 22.1446 10.5219C22.2244 9.47406 22.3573 8.42625 22.8358 7.48322Z" fill="#808080"/>
<path d="M22.8372 7.4834C22.598 8.42643 22.3853 9.36946 22.3321 10.3649C22.2523 12.5653 22.8106 14.6085 23.9272 16.5208C26.8516 21.4717 29.776 26.4488 32.6737 31.4259C32.9396 31.8712 33.1523 32.3165 33.4181 32.7356C31.823 35.4599 30.2279 38.158 28.6062 40.8824C26.3731 44.6807 24.1399 48.5052 21.8802 52.3035C21.7738 52.3035 21.7472 52.2511 21.7206 52.1725C21.6941 51.9629 21.7738 51.7796 21.827 51.57C22.917 47.6407 22.0131 44.1568 19.2748 41.1705C17.5999 39.363 15.4731 38.3414 13.0273 38.0009C9.83706 37.5556 7.01903 38.3676 4.49344 40.3323C4.04149 40.6728 3.74905 41.1705 3.21735 41.4324C3.11101 41.4324 3.05784 41.3801 3.03125 41.3015C4.30734 39.1273 5.55684 36.9531 6.83293 34.7789C12.0968 25.7677 17.3607 16.7565 22.6511 7.77155C22.7043 7.66677 22.784 7.58818 22.8372 7.4834Z" fill="#BCBCBC"/>
<path d="M3.13732 41.3798C3.64244 40.9345 4.12097 40.463 4.65267 40.0438C11.1129 35.0143 20.8165 38.6555 22.2255 46.6188C22.5711 48.5311 22.385 50.3648 21.8001 52.1984C21.7735 52.3556 21.747 52.4866 21.6938 52.6438C21.4545 53.0629 21.2418 53.5082 20.976 53.9273C18.6099 57.778 15.1272 59.6903 10.5546 59.4021C5.3173 59.0354 1.1966 55.1585 0.478799 50.0242C0.133192 47.5357 0.63831 45.2043 1.94098 43.0563C2.20684 42.5848 2.52586 42.1657 2.8183 41.6941C2.95122 41.5894 2.89805 41.3798 3.13732 41.3798Z" fill="#898989"/>
<path d="M3.13641 41.3799C3.03007 41.4847 3.03007 41.6681 2.84398 41.6943C2.81739 41.5109 2.92373 41.4061 3.03007 41.2751L3.13641 41.3799Z" fill="#BCBCBC"/>
<path d="M21.6944 52.6438C21.5881 52.4604 21.6944 52.3295 21.8008 52.1985C21.8274 52.2247 21.8805 52.2771 21.9071 52.3033L21.6944 52.6438Z" fill="#BCBCBC"/>
<path d="M45.3008 78.5771L48.81 69.3826H50.1659L53.6751 78.5771H52.3459L51.442 76.0886H47.5339L46.63 78.5771H45.3008ZM47.9327 74.9884H51.0432L49.5278 70.8495H49.4747L47.9327 74.9884Z" fill="#757575"/>
<path d="M54.8988 77.8174C54.3139 77.1626 54.0215 76.3767 54.0215 75.4337C54.0215 74.5168 54.3139 73.731 54.8988 73.0499C55.5103 72.395 56.2015 72.0807 57.0522 72.0807C57.5307 72.0807 57.9561 72.1855 58.3283 72.3688C58.7271 72.5784 59.0195 72.8141 59.2322 73.1547H59.2853L59.2322 72.2902V69.3826H60.4285V78.5771H59.2853V77.7127H59.2322C59.0195 78.027 58.7271 78.289 58.3283 78.4985C57.9295 78.7081 57.5041 78.7867 57.0522 78.7867C56.2015 78.7867 55.4837 78.4723 54.8988 77.8174ZM58.6739 77.084C59.0727 76.6648 59.2588 76.1147 59.2588 75.4337C59.2588 74.7788 59.0727 74.2287 58.6739 73.8096C58.3017 73.3904 57.8232 73.1809 57.2383 73.1809C56.6534 73.1809 56.1749 73.3904 55.8027 73.8096C55.4039 74.2287 55.2178 74.7788 55.2178 75.4337C55.2178 76.0886 55.4039 76.6387 55.8027 77.0578C56.2015 77.4769 56.68 77.6865 57.2383 77.6865C57.8232 77.7127 58.3017 77.5031 58.6739 77.084Z" fill="#757575"/>
<path d="M65.9574 78.21C65.4789 78.5767 64.8674 78.7863 64.123 78.7863C63.485 78.7863 62.9267 78.6291 62.4216 78.2886C61.9431 77.9481 61.5974 77.5289 61.3848 76.9788L62.4482 76.5335C62.6077 76.9003 62.8204 77.2146 63.1394 77.4242C63.4318 77.6337 63.7774 77.7385 64.123 77.7385C64.4952 77.7385 64.8143 77.6599 65.0801 77.5027C65.346 77.3456 65.4523 77.136 65.4523 76.9264C65.4523 76.5335 65.1333 76.2192 64.5218 76.0358L63.4318 75.7739C62.1823 75.4595 61.5709 74.8832 61.5709 73.9926C61.5709 73.4163 61.8101 72.971 62.2887 72.6042C62.7672 72.2637 63.3787 72.0803 64.0965 72.0803C64.6548 72.0803 65.1599 72.2113 65.6384 72.4733C66.0904 72.7352 66.4094 73.1019 66.5955 73.5473L65.5321 73.9926C65.3991 73.7306 65.213 73.5211 64.9472 73.3639C64.6813 73.2067 64.3623 73.1281 64.0167 73.1281C63.6977 73.1281 63.4318 73.2067 63.166 73.3639C62.9267 73.5211 62.7938 73.7044 62.7938 73.9402C62.7938 74.3069 63.1394 74.5689 63.8306 74.6999L64.7877 74.9356C66.0638 75.2499 66.6752 75.8786 66.6752 76.8217C66.7018 77.3718 66.436 77.8433 65.9574 78.21Z" fill="#757575"/>
<path d="M5.50313 68.2739C2.49901 68.2739 0 70.6577 0 73.5916C0 76.5254 2.49901 78.883 5.50313 78.883C7.12483 78.883 8.32117 78.3591 9.27823 77.3899C10.2619 76.4207 10.5543 75.0847 10.5543 74.0107C10.5543 73.6701 10.5277 73.3558 10.4746 73.0939H5.50313V74.5346H9.03897C8.93262 75.3466 8.66677 75.9491 8.24141 76.3683C7.73629 76.866 6.91215 77.4423 5.50313 77.4423C3.32315 77.4423 1.6217 75.7134 1.6217 73.5916C1.6217 71.4698 3.32315 69.7409 5.50313 69.7409C6.67288 69.7409 7.55019 70.1862 8.16165 70.7887L9.19848 69.7671C8.32116 68.9288 7.15142 68.2739 5.50313 68.2739ZM14.5155 72.0722C12.628 72.0722 11.0594 73.513 11.0594 75.53C11.0594 77.5209 12.6014 78.9878 14.5155 78.9878C16.4296 78.9878 17.9716 77.5209 17.9716 75.53C17.9716 73.5392 16.4031 72.0722 14.5155 72.0722ZM14.5155 77.6256C13.4787 77.6256 12.5748 76.7612 12.5748 75.53C12.5748 74.2988 13.4787 73.4344 14.5155 73.4344C15.5523 73.4344 16.4562 74.2726 16.4562 75.53C16.4562 76.7612 15.5523 77.6256 14.5155 77.6256ZM22.0125 72.0722C20.0984 72.0722 18.5565 73.513 18.5565 75.53C18.5565 77.5209 20.0984 78.9878 22.0125 78.9878C23.9001 78.9878 25.4686 77.5209 25.4686 75.53C25.4686 73.5392 23.9267 72.0722 22.0125 72.0722ZM22.0125 77.6256C20.9757 77.6256 20.0718 76.7612 20.0718 75.53C20.0718 74.2988 20.9757 73.4344 22.0125 73.4344C23.0494 73.4344 23.9533 74.2726 23.9533 75.53C23.9533 76.7612 23.0759 77.6256 22.0125 77.6256ZM29.483 72.0722C27.7549 72.0722 26.1864 73.5654 26.1864 75.5038C26.1864 77.4161 27.7549 78.9092 29.483 78.9092C30.3071 78.9092 30.9452 78.5425 31.2908 78.1233H31.3439V78.6211C31.3439 79.9308 30.6527 80.6381 29.5096 80.6381C28.5791 80.6381 28.0208 79.9832 27.7815 79.4331L26.4523 79.9832C26.8245 80.9 27.8347 82.0002 29.5096 82.0002C31.2908 82.0002 32.7795 80.9524 32.7795 78.4377V72.308H31.3439V72.8581H31.2908C30.9452 72.439 30.3071 72.0722 29.483 72.0722ZM29.6159 77.5732C28.5791 77.5732 27.7018 76.7088 27.7018 75.5038C27.7018 74.2988 28.5791 73.4082 29.6159 73.4082C30.6527 73.4082 31.4503 74.2988 31.4503 75.5038C31.4503 76.7088 30.6527 77.5732 29.6159 77.5732ZM33.8961 68.6931H35.4115V78.8044H33.8961V68.6931ZM39.479 72.0722C37.6712 72.0722 36.1559 73.4606 36.1559 75.53C36.1559 77.4685 37.6446 78.9878 39.6385 78.9878C41.2602 78.9878 42.1907 78.0186 42.5629 77.4685L41.3666 76.6826C40.9678 77.2589 40.4095 77.6256 39.6385 77.6256C38.841 77.6256 38.2827 77.2851 37.9371 76.5778L42.6426 74.6656L42.4831 74.2726C42.1907 73.513 41.2868 72.0722 39.479 72.0722ZM37.6712 75.4252C37.618 74.0893 38.7346 73.4082 39.5056 73.4082C40.1171 73.4082 40.6488 73.6963 40.8083 74.1417L37.6712 75.4252Z" fill="#757575"/>
</svg>
