<svg width="54" height="46" viewBox="0 0 54 46" fill="none" xmlns="http://www.w3.org/2000/svg">
<path fill-rule="evenodd" clip-rule="evenodd" d="M37.6947 9.81646C39.0059 9.81646 40.069 8.75344 40.069 7.44223C40.069 6.13103 39.0059 5.068 37.6947 5.068C36.3835 5.068 35.3205 6.13103 35.3205 7.44223C35.3205 8.75344 36.3835 9.81646 37.6947 9.81646ZM20.875 9.09173L28.1585 1.80818C28.7142 1.25257 29.4857 0.913105 30.3346 0.913105H41.1373C41.5431 0.911688 41.9451 0.990555 42.3202 1.14516C42.6953 1.29977 43.0361 1.52706 43.323 1.81395C43.6099 2.10084 43.8372 2.44165 43.9918 2.81676C44.1464 3.19187 44.2253 3.59387 44.2239 3.99959V14.8024C44.2239 15.6512 43.8844 16.4228 43.3134 16.9784L36.0409 24.2578L20.875 9.09173Z" fill="#7F7F7F"/>
<path fill-rule="evenodd" clip-rule="evenodd" d="M36.0408 24.2578L27.0651 33.242C26.494 33.7975 25.7225 34.1525 24.8737 34.1525C24.025 34.1525 23.2533 33.7975 22.6977 33.242L11.8949 22.4392C11.3238 21.8836 10.9844 21.112 10.9844 20.2632C10.9844 19.399 11.3393 18.6274 11.8949 18.0718L20.8749 9.0918L36.0408 24.2578Z" fill="#898989"/>
<path fill-rule="evenodd" clip-rule="evenodd" d="M17.1372 27.6814L11.8949 22.4391C11.3238 21.8837 10.9844 21.112 10.9844 20.2632C10.9844 19.399 11.3393 18.6274 11.8949 18.0718L20.8749 9.0918L28.3008 16.5179L17.1372 27.6814Z" fill="#BCBCBC"/>
<path fill-rule="evenodd" clip-rule="evenodd" d="M43.1581 1.6607C42.5967 1.17603 41.879 0.910526 41.1374 0.913105H30.3346C29.4857 0.913105 28.7142 1.25257 28.1585 1.80818L20.875 9.09173L28.301 16.5178L35.8643 8.95445C35.5121 8.52932 35.3197 7.99433 35.3205 7.44223C35.3205 6.13103 36.3835 5.068 37.6947 5.068C38.2468 5.06714 38.7818 5.25953 39.207 5.61179L43.1581 1.6607Z" fill="#656565"/>
<path d="M28.2953 22.1824C30.9588 22.1824 33.118 20.0232 33.118 17.3598C33.118 14.6963 30.9588 12.5371 28.2953 12.5371C25.6318 12.5371 23.4727 14.6963 23.4727 17.3598C23.4727 20.0232 25.6318 22.1824 28.2953 22.1824Z" fill="#7F7F7F"/>
<path fill-rule="evenodd" clip-rule="evenodd" d="M34.8679 15.941H28.4538V18.693H32.1458C31.8016 20.4413 30.3624 21.4449 28.4538 21.4449C26.201 21.4449 24.3863 19.5671 24.3863 17.236C24.3863 14.9049 26.201 13.0271 28.4538 13.0271C29.4238 13.0271 30.2998 13.3833 30.9882 13.9661L32.9906 11.894C31.7704 10.7932 30.2059 10.1133 28.4538 10.1133C24.6366 10.1133 21.5703 13.2862 21.5703 17.236C21.5703 21.1859 24.6366 24.3588 28.4538 24.3588C31.8955 24.3588 35.0244 21.7687 35.0244 17.236C35.0244 16.8152 34.9618 16.3619 34.8679 15.941Z" fill="white"/>
<path d="M26.546 43.0519C26.8516 43.25 27.2008 43.3565 27.5575 43.3605C28.1363 43.3605 28.4717 43.0315 28.4717 42.5571C28.4717 42.0826 28.2391 41.8643 27.6603 41.6197C26.9463 41.3461 26.5054 40.9502 26.5054 40.2865C26.5054 39.553 27.0707 39.0086 27.9199 39.0086C28.2555 38.996 28.5887 39.0751 28.8882 39.2386L28.7313 39.7335C28.4761 39.5857 28.1908 39.5086 27.901 39.5093C27.3033 39.5093 27.0896 39.8936 27.0896 40.2138C27.0896 40.6533 27.3601 40.8716 27.9605 41.122C28.7016 41.4305 29.0775 41.8148 29.0775 42.5047C29.0775 43.1946 28.5771 43.8612 27.5467 43.8612C27.1573 43.8694 26.7725 43.7692 26.4297 43.5701L26.546 43.0519Z" fill="#757575"/>
<path d="M29.5176 38.5649H30.18V40.8181C30.2921 40.6236 30.4561 40.4634 30.654 40.355C30.8597 40.2353 31.0935 40.171 31.3321 40.1685C31.8219 40.1685 32.6067 40.4793 32.6067 41.7224V43.8606H31.96V41.7877C31.96 41.2065 31.7402 40.7124 31.1155 40.7124C30.9164 40.7147 30.7232 40.7794 30.5635 40.8972C30.4039 41.015 30.2861 41.1799 30.2271 41.3681C30.1916 41.4678 30.1767 41.5735 30.1831 41.6789V43.8543H29.5176V38.5649Z" fill="#757575"/>
<path d="M36.5793 42.0716C36.5793 43.319 35.6462 43.8615 34.7814 43.8615C33.8047 43.8615 33.0488 43.1942 33.0488 42.1209C33.0488 40.9925 33.8389 40.3311 34.8405 40.3311C35.8421 40.3311 36.5793 41.0389 36.5793 42.0716ZM33.7114 42.1064C33.7114 42.8432 34.1655 43.4002 34.8094 43.4002C35.4533 43.4002 35.9075 42.849 35.9075 42.0919C35.9075 41.5117 35.5964 40.7981 34.825 40.7981C34.0535 40.7981 33.7114 41.4653 33.7114 42.1064Z" fill="#757575"/>
<path d="M37.0534 41.5112C37.0534 41.0774 37.0534 40.7281 37.0215 40.4078H37.6285L37.6605 40.9901C37.7942 40.7817 37.9876 40.6103 38.2201 40.4944C38.4525 40.3785 38.7152 40.3224 38.98 40.3321C39.8778 40.3321 40.5519 41.025 40.5519 42.0498C40.5519 43.2668 39.7404 43.8665 38.865 43.8665C38.6404 43.8756 38.417 43.8316 38.2166 43.7387C38.0162 43.6459 37.8455 43.5074 37.7212 43.3367V45.1854H37.0534V41.5112ZM37.7212 42.4138C37.7233 42.4979 37.734 42.5818 37.7531 42.6641C37.8095 42.8699 37.9399 43.0525 38.1235 43.1828C38.307 43.3131 38.5332 43.3837 38.7659 43.3832C39.4784 43.3832 39.8937 42.8534 39.8937 42.076C39.8937 41.3977 39.504 40.8183 38.7883 40.8183C38.5496 40.8245 38.32 40.9028 38.1355 41.0409C37.951 41.179 37.8221 41.369 37.7691 41.5811C37.7425 41.6625 37.7275 41.7466 37.7244 41.8315L37.7212 42.4138Z" fill="#757575"/>
<path d="M41.0241 41.5112C41.0241 41.0774 41.0241 40.7281 40.9922 40.4078H41.5992L41.6312 40.9901C41.7649 40.7817 41.9583 40.6103 42.1908 40.4944C42.4232 40.3785 42.6859 40.3224 42.9507 40.3321C43.8485 40.3321 44.5226 41.025 44.5226 42.0498C44.5226 43.2668 43.7111 43.8665 42.8357 43.8665C42.611 43.8759 42.3875 43.832 42.1871 43.7391C41.9866 43.6462 41.816 43.5076 41.6919 43.3367V45.1854H41.0241V41.5112ZM41.6919 42.4138C41.6942 42.4979 41.7049 42.5817 41.7238 42.6641C41.7797 42.8679 41.9082 43.0491 42.0891 43.1792C42.2701 43.3094 42.4933 43.3811 42.7238 43.3832C43.4363 43.3832 43.8517 42.8534 43.8517 42.076C43.8517 41.3977 43.4619 40.8183 42.7462 40.8183C42.5076 40.8245 42.2779 40.9028 42.0934 41.0409C41.909 41.179 41.7801 41.369 41.727 41.5811C41.7005 41.6625 41.6854 41.7466 41.6823 41.8315L41.6919 42.4138Z" fill="#757575"/>
<path d="M45.8468 39.4031C45.8468 39.5072 45.8003 39.607 45.7176 39.6806C45.6349 39.7542 45.5228 39.7956 45.4059 39.7956C45.2889 39.7956 45.1768 39.7542 45.0941 39.6806C45.0114 39.607 44.965 39.5072 44.965 39.4031C44.9636 39.3505 44.9742 39.2983 44.9963 39.2495C45.0183 39.2008 45.0513 39.1565 45.0932 39.1195C45.1351 39.0825 45.185 39.0535 45.2399 39.0342C45.2948 39.015 45.3536 39.0059 45.4126 39.0075C45.471 39.0058 45.5292 39.0149 45.5834 39.0343C45.6377 39.0536 45.6868 39.0829 45.7276 39.1201C45.7685 39.1573 45.8002 39.2017 45.8207 39.2504C45.8412 39.2991 45.8501 39.3511 45.8468 39.4031ZM45.0558 43.8616V40.3799H45.766V43.8616H45.0558Z" fill="#757575"/>
<path d="M46.3202 41.3418C46.3202 40.9852 46.3202 40.694 46.2891 40.4088H46.8708L46.9081 40.9793C47.0265 40.7776 47.2004 40.6106 47.411 40.4965C47.6215 40.3823 47.8607 40.3253 48.1027 40.3315C48.6036 40.3315 49.3782 40.6287 49.3782 41.7994V43.8585H48.7218V41.8677C48.7218 41.3121 48.504 40.8485 47.8849 40.8485C47.6324 40.8563 47.3932 40.9584 47.2187 41.1329C47.0442 41.3073 46.9483 41.5402 46.9517 41.7815V43.8615H46.3202V41.3418Z" fill="#757575"/>
<path d="M53.3488 40.4275C53.3488 40.6677 53.3161 40.9365 53.3161 41.3397V43.27C53.3161 44.0306 53.1428 44.4996 52.7734 44.7856C52.3862 45.0636 51.8943 45.2053 51.394 45.1831C50.9516 45.1891 50.5156 45.0903 50.1322 44.8971L50.3054 44.4367C50.6427 44.6112 51.0283 44.7012 51.4201 44.697C52.1262 44.697 52.6427 44.3738 52.6427 43.5359V43.1642C52.5152 43.3419 52.336 43.4869 52.1236 43.5844C51.9111 43.6819 51.6729 43.7283 51.4332 43.7189C50.4918 43.7189 49.8184 43.0183 49.8184 42.0975C49.8184 40.9708 50.6585 40.3331 51.528 40.3331C51.7669 40.3204 52.0051 40.3674 52.2146 40.4687C52.4241 40.57 52.5964 40.7213 52.7113 40.905L52.744 40.4046L53.3488 40.4275ZM52.6362 41.7372C52.6392 41.6192 52.6152 41.5019 52.5656 41.3922C52.516 41.2825 52.4418 41.1826 52.3474 41.0984C52.2529 41.0141 52.1402 40.9473 52.0157 40.9018C51.8913 40.8563 51.7577 40.8331 51.6228 40.8335C50.969 40.8335 50.4918 41.3197 50.4918 42.0889C50.4918 42.7409 50.8677 43.2843 51.613 43.2843C51.8268 43.2833 52.0348 43.2229 52.2069 43.1119C52.379 43.0009 52.5064 42.845 52.5708 42.6666C52.6085 42.5621 52.6272 42.453 52.6263 42.3434L52.6362 41.7372Z" fill="#757575"/>
<path d="M3.85711 38.1245C2.2068 38.1245 0.833984 39.434 0.833984 41.0457C0.833984 42.6574 2.2068 43.9526 3.85711 43.9526C4.74798 43.9526 5.40518 43.6648 5.93094 43.1323C6.47131 42.5999 6.63196 41.866 6.63196 41.276C6.63196 41.0889 6.61735 40.9162 6.58814 40.7723H3.85711V41.5638H5.7995C5.74108 42.0099 5.59504 42.3409 5.36137 42.5711C5.08388 42.8445 4.63114 43.1611 3.85711 43.1611C2.65954 43.1611 1.72486 42.2113 1.72486 41.0457C1.72486 39.8801 2.65954 38.9304 3.85711 38.9304C4.4997 38.9304 4.98165 39.175 5.31755 39.506L5.88713 38.9448C5.40518 38.4843 4.76258 38.1245 3.85711 38.1245ZM8.80802 40.2111C7.7711 40.2111 6.90944 41.0026 6.90944 42.1106C6.90944 43.2043 7.7565 44.0101 8.80802 44.0101C9.85954 44.0101 10.7066 43.2043 10.7066 42.1106C10.7066 41.017 9.84494 40.2111 8.80802 40.2111ZM8.80802 43.2618C8.23845 43.2618 7.74189 42.787 7.74189 42.1106C7.74189 41.4343 8.23845 40.9594 8.80802 40.9594C9.37759 40.9594 9.87415 41.4199 9.87415 42.1106C9.87415 42.787 9.37759 43.2618 8.80802 43.2618ZM12.9265 40.2111C11.875 40.2111 11.0279 41.0026 11.0279 42.1106C11.0279 43.2043 11.875 44.0101 12.9265 44.0101C13.9634 44.0101 14.8251 43.2043 14.8251 42.1106C14.8251 41.017 13.978 40.2111 12.9265 40.2111ZM12.9265 43.2618C12.3569 43.2618 11.8604 42.787 11.8604 42.1106C11.8604 41.4343 12.3569 40.9594 12.9265 40.9594C13.4961 40.9594 13.9926 41.4199 13.9926 42.1106C13.9926 42.787 13.5107 43.2618 12.9265 43.2618ZM17.0303 40.2111C16.081 40.2111 15.2194 41.0313 15.2194 42.0962C15.2194 43.1467 16.081 43.967 17.0303 43.967C17.4831 43.967 17.8336 43.7655 18.0234 43.5352H18.0526V43.8087C18.0526 44.5282 17.6729 44.9167 17.0449 44.9167C16.5338 44.9167 16.2271 44.557 16.0956 44.2548L15.3654 44.557C15.5699 45.0606 16.1249 45.665 17.0449 45.665C18.0234 45.665 18.8413 45.0894 18.8413 43.7079V40.3406H18.0526V40.6428H18.0234C17.8336 40.4126 17.4831 40.2111 17.0303 40.2111ZM17.1034 43.2331C16.5338 43.2331 16.0518 42.7582 16.0518 42.0962C16.0518 41.4343 16.5338 40.945 17.1034 40.945C17.6729 40.945 18.1111 41.4343 18.1111 42.0962C18.1111 42.7582 17.6729 43.2331 17.1034 43.2331ZM19.4547 38.3548H20.2871V43.9094H19.4547V38.3548ZM22.5216 40.2111C21.5285 40.2111 20.696 40.9738 20.696 42.1106C20.696 43.1755 21.5139 44.0101 22.6092 44.0101C23.5001 44.0101 24.0113 43.4777 24.2157 43.1755L23.5585 42.7438C23.3395 43.0604 23.0328 43.2618 22.6092 43.2618C22.1711 43.2618 21.8644 43.0748 21.6745 42.6862L24.2595 41.6357L24.1719 41.4199C24.0113 41.0026 23.5147 40.2111 22.5216 40.2111ZM21.5285 42.0531C21.4993 41.3192 22.1127 40.945 22.5362 40.945C22.8721 40.945 23.1642 41.1033 23.2518 41.3479L21.5285 42.0531Z" fill="#757575"/>
</svg>
