<svg width="165" height="74" viewBox="0 0 165 74" fill="none" xmlns="http://www.w3.org/2000/svg">
<path d="M38.803 37.8727V48.1627H45.1416C46.6501 48.1627 47.8988 47.6554 48.8871 46.6405C49.9018 45.6258 50.4099 44.4178 50.4099 43.0185C50.4099 41.6461 49.9018 40.4535 48.8871 39.4364C47.8988 38.3944 46.6501 37.8727 45.1416 37.8727H38.803ZM38.803 51.7863V63.7227H35.0166V34.2513H45.059C47.6111 34.2513 49.7791 35.1026 51.5626 36.8034C53.3739 38.5041 54.2789 40.5762 54.2789 43.0185C54.2789 45.5159 53.3739 47.5999 51.5626 49.2736C49.8064 50.9495 47.6382 51.7863 45.059 51.7863H38.803Z" fill="#202020"/>
<path d="M59.5073 57.5469C59.5073 58.5351 59.9245 59.3591 60.7622 60.0179C61.599 60.6768 62.5797 61.0062 63.7057 61.0062C65.2967 61.0062 66.7168 60.4155 67.9647 59.2356C69.2136 58.0565 69.8382 56.6707 69.8382 55.0781C68.6576 54.1452 67.0121 53.6795 64.8993 53.6795C63.362 53.6795 62.0792 54.0482 61.0499 54.7904C60.0215 55.531 59.5073 56.4511 59.5073 57.5469ZM64.4048 42.8957C67.2036 42.8957 69.4127 43.643 71.0317 45.1372C72.6508 46.6344 73.4604 48.6851 73.4604 51.2916V63.7226H69.8382V60.9229H69.674C68.1086 63.2288 66.0237 64.3799 63.4172 64.3799C61.1945 64.3799 59.3348 63.7226 57.8405 62.4049C56.3435 61.0872 55.5967 59.4401 55.5967 57.4659C55.5967 55.381 56.3851 53.7188 57.9632 52.4845C59.5415 51.2501 61.6474 50.6329 64.2821 50.6329C66.5313 50.6329 68.3835 51.044 69.8382 51.8672V51.0024C69.8382 49.6862 69.3173 48.5678 68.2745 47.6491C67.2317 46.729 66.0102 46.2693 64.6099 46.2693C62.4979 46.2693 60.8235 47.1607 59.5899 48.9441L56.2556 46.8465C58.0927 44.2111 60.8099 42.8957 64.4048 42.8957Z" fill="#202020"/>
<path d="M101.368 64.0508C99.7207 64.0508 98.3561 63.5434 97.2732 62.5286C96.1879 61.5139 95.6313 60.0993 95.6048 58.2893V47.0118H92.0646V43.5526H95.6048V37.3792H99.3913V43.5526H104.33V47.0118H99.3913V57.055C99.3913 58.3992 99.6525 59.3117 100.174 59.791C100.695 60.2719 101.284 60.512 101.943 60.512C102.246 60.512 102.542 60.4779 102.829 60.4082C103.117 60.3401 103.384 60.2507 103.632 60.1409L104.825 63.5169C103.836 63.8728 102.686 64.0508 101.368 64.0508ZM77.7412 43.5526H81.364V46.8468H81.5276C82.6538 44.2666 84.9726 42.977 88.4849 42.977L89.2663 43.0588V47.0118L87.5799 46.8468C85.8229 46.8468 84.3751 47.3882 83.2369 48.4733C82.098 49.5562 81.5276 50.9346 81.5276 52.6081V63.7229H77.7412V43.5526Z" fill="#202020"/>
<path d="M108.158 43.5524H111.78V46.3528H111.946C112.52 45.3645 113.407 44.5405 114.6 43.8818C115.794 43.2228 117.035 42.8958 118.326 42.8958C120.794 42.8958 122.695 43.6014 124.026 45.0139C125.356 46.4284 126.021 48.4368 126.021 51.0441V63.7227H122.235V51.2917C122.154 47.9975 120.493 46.3528 117.256 46.3528C115.745 46.3528 114.482 46.9623 113.467 48.1831C112.453 49.4046 111.946 50.8662 111.946 52.5677V63.7227H108.158V43.5524Z" fill="#202020"/>
<path d="M133.472 51.2084H145.039C144.928 49.8097 144.359 48.651 143.329 47.7309C142.302 46.8123 140.922 46.3527 139.192 46.3527C137.767 46.3527 136.538 46.7918 135.51 47.6681C134.48 48.5488 133.801 49.7279 133.472 51.2084ZM139.522 64.3799C136.559 64.3799 134.117 63.3651 132.197 61.3333C130.275 59.3038 129.315 56.7389 129.315 53.6378C129.315 50.5646 130.247 48.005 132.114 45.9603C133.98 43.9179 136.366 42.8957 139.275 42.8957C142.267 42.8957 144.647 43.8611 146.417 45.7961C148.187 47.7309 149.071 50.4421 149.071 53.9255L149.031 54.3382H133.183C133.238 56.3125 133.897 57.9051 135.16 59.113C136.421 60.3208 137.932 60.9229 139.686 60.9229C142.102 60.9229 143.996 59.7165 145.368 57.3008L148.741 58.9479C147.836 60.648 146.582 61.9793 144.976 62.9388C143.371 63.9005 141.553 64.3799 139.522 64.3799Z" fill="#202020"/>
<path d="M156.316 63.7227H152.528V43.5524H156.152V46.8466H156.316C156.699 45.7749 157.488 44.8647 158.683 44.109C159.876 43.3539 161.049 42.9768 162.203 42.9768C163.299 42.9768 164.232 43.1418 165 43.4714L163.848 47.1343C163.382 46.9435 162.64 46.8466 161.625 46.8466C160.197 46.8466 158.956 47.4219 157.901 48.5754C156.844 49.728 156.316 51.0722 156.316 52.6079V63.7227Z" fill="#202020"/>
<path d="M43.5961 17.0285V19.5988H49.7475C49.5491 21.2217 48.8758 22.4841 47.7285 23.3875C46.6109 24.275 45.2333 24.718 43.5961 24.718C41.6991 24.718 40.099 24.0523 38.7987 22.721C37.4977 21.4049 36.8471 19.7911 36.8471 17.8782C36.8471 15.9646 37.4977 14.3509 38.7987 13.0339C40.099 11.7025 41.6991 11.0369 43.5961 11.0369C45.3711 11.0369 46.9168 11.6495 48.233 12.8732L50.0466 11.0596C48.2254 9.33071 46.0762 8.46588 43.5961 8.46588C41.9126 8.46588 40.3215 8.89451 38.8206 9.75101C37.3372 10.5932 36.1656 11.7488 35.3091 13.2179C34.4677 14.6568 34.0459 16.2098 34.0459 17.8782C34.0459 19.561 34.4677 21.1216 35.3091 22.5605C36.1505 24.0145 37.322 25.1618 38.8206 26.0039C40.3215 26.8612 41.9126 27.2891 43.5961 27.2891C46.1367 27.2891 48.2405 26.4938 49.9088 24.902C51.5613 23.3253 52.3881 21.2375 52.3881 18.6355C52.3881 18.0236 52.342 17.4866 52.2505 17.0285H43.5961Z" fill="#202020"/>
<path d="M61.8003 23.8464C61.1415 24.5507 60.3387 24.902 59.3907 24.902C58.4259 24.902 57.6149 24.5507 56.9567 23.8464C56.2986 23.1421 55.9692 22.2705 55.9692 21.2292C55.9692 20.1585 56.2986 19.2853 56.9567 18.6128C57.6149 17.9085 58.4259 17.5564 59.3907 17.5564C60.3538 17.5564 61.1658 17.9085 61.8232 18.6128C62.4811 19.2853 62.8105 20.1585 62.8105 21.2292C62.8105 22.2538 62.4736 23.127 61.8003 23.8464ZM59.3907 15.1686C57.6603 15.1686 56.2146 15.751 55.0514 16.9134C53.8882 18.0614 53.3066 19.5003 53.3066 21.2292C53.3066 22.9286 53.8958 24.366 55.0741 25.545C56.2373 26.7082 57.6762 27.2891 59.3907 27.2891C61.1037 27.2891 62.5424 26.7082 63.7064 25.545C64.8841 24.366 65.4733 22.9286 65.4733 21.2292C65.4733 19.5003 64.8841 18.0614 63.7064 16.9134C62.5424 15.751 61.1037 15.1686 59.3907 15.1686Z" fill="#202020"/>
<path d="M93.2949 26.9219H95.9569V9.10892H93.2949V26.9219Z" fill="#202020"/>
<path d="M75.0673 23.8464C74.4091 24.5507 73.6057 24.902 72.6575 24.902C71.6929 24.902 70.8817 24.5507 70.2235 23.8464C69.5656 23.1421 69.2377 22.2705 69.2377 21.2292C69.2377 20.1585 69.5656 19.2853 70.2235 18.6128C70.8817 17.9085 71.6929 17.5564 72.6575 17.5564C73.6208 17.5564 74.4326 17.9085 75.09 18.6128C75.7481 19.2853 76.0775 20.1585 76.0775 21.2292C76.0775 22.2538 75.7406 23.127 75.0673 23.8464ZM72.6575 15.1686C70.9279 15.1686 69.4814 15.751 68.319 16.9134C67.1558 18.0614 66.5742 19.5003 66.5742 21.2292C66.5742 22.9286 67.1634 24.366 68.3417 25.545C69.5043 26.7082 70.943 27.2891 72.6575 27.2891C74.3705 27.2891 75.8094 26.7082 76.9734 25.545C78.1517 24.366 78.7401 22.9286 78.7401 21.2292C78.7401 19.5003 78.1517 18.0614 76.9734 16.9134C75.8094 15.751 74.3705 15.1686 72.6575 15.1686Z" fill="#202020"/>
<path d="M100.801 18.5203C101.473 17.848 102.223 17.5109 103.051 17.5109C103.569 17.5109 104.037 17.6291 104.451 17.8668C104.863 18.1031 105.146 18.4137 105.299 18.796L99.8828 21.0452C99.851 20.0207 100.158 19.1785 100.801 18.5203ZM103.256 24.902C101.926 24.902 100.944 24.2902 100.318 23.0657L108.421 19.7145L108.147 19.0255C107.931 18.4591 107.653 17.9395 107.308 17.464C106.963 16.99 106.57 16.5809 106.127 16.2364C105.682 15.8919 105.191 15.6275 104.658 15.4443C104.122 15.2603 103.556 15.1686 102.957 15.1686C101.337 15.1686 99.9738 15.7426 98.8718 16.8907C97.785 18.0539 97.2422 19.5003 97.2422 21.2292C97.2422 22.9438 97.8155 24.3826 98.9649 25.545C100.111 26.7082 101.543 27.2891 103.256 27.2891C105.4 27.2891 107.083 26.3948 108.308 24.6036L106.24 23.2262C105.491 24.3431 104.497 24.902 103.256 24.902Z" fill="#202020"/>
<path d="M88.1759 23.8693C87.5474 24.5577 86.7826 24.9022 85.8798 24.9022C84.931 24.9022 84.1282 24.5509 83.4702 23.8466C82.8271 23.1423 82.5053 22.2782 82.5053 21.2521C82.5053 20.2116 82.8339 19.34 83.4929 18.6357C84.1662 17.9162 84.9612 17.5566 85.8798 17.5566C86.7977 17.5566 87.5625 17.9087 88.1759 18.613C88.803 19.3324 89.1173 20.2116 89.1173 21.2521C89.1173 22.2782 88.803 23.1498 88.1759 23.8693ZM88.9331 16.5237H88.8409C88.0761 15.6201 87.0135 15.1688 85.6504 15.1688C84.0896 15.1688 82.7273 15.7662 81.5649 16.9599C80.4168 18.1533 79.8428 19.5854 79.8428 21.2521C79.8428 22.9046 80.4168 24.3281 81.5649 25.5225C82.7432 26.7009 84.1047 27.2892 85.6504 27.2892C87.0135 27.2892 88.0761 26.8304 88.8409 25.9116H88.9331V26.532C88.9331 29.0718 87.8541 30.3426 85.6958 30.3426C85.0081 30.3426 84.3963 30.1433 83.8601 29.7459C83.3248 29.3475 82.9188 28.8272 82.6439 28.1851L80.3243 29.1484C80.5546 29.6844 80.8454 30.1707 81.1975 30.6061C81.5496 31.0423 81.9586 31.418 82.4251 31.7322C82.8915 32.045 83.4012 32.2896 83.9525 32.4668C84.5031 32.6417 85.0847 32.7295 85.6958 32.7295C87.502 32.7295 88.9143 32.182 89.9313 31.0892C90.9499 29.995 91.4588 28.4381 91.4588 26.4176V15.5361H88.9331V16.5237Z" fill="#202020"/>
<path d="M0 73.4043H19.3161V0.000404358H0V73.4043Z" fill="#202020"/>
</svg>
