<svg width="22" height="22" viewBox="0 0 22 22" fill="none" xmlns="http://www.w3.org/2000/svg">
<path d="M11.0161 0C4.93187 0 0 4.91975 0 10.9881C0 15.6438 2.90197 19.6203 7.00038 21.2199C6.90389 20.35 6.81751 19.0172 7.03805 18.0675C7.2393 17.2086 8.33006 12.6069 8.33006 12.6069C8.33006 12.6069 8.00017 11.9469 8.00017 10.9743C8.00017 9.44992 8.88877 8.30592 9.9924 8.30592C10.9334 8.30592 11.3873 9.01083 11.3873 9.85325C11.3873 10.7965 10.7873 12.2063 10.4758 13.5126C10.2139 14.6062 11.0271 15.4972 12.1068 15.4972C14.0623 15.4972 15.5694 13.4392 15.5694 10.4674C15.5694 7.84483 13.6736 6.00417 10.9674 6.00417C7.83384 6.00417 5.99691 8.35267 5.99691 10.7699C5.99691 11.7168 6.35897 12.7343 6.81383 13.2825C6.90481 13.3925 6.91675 13.4888 6.89194 13.5988C6.80924 13.9425 6.6227 14.6978 6.58502 14.8482C6.53632 15.0544 6.42697 15.0966 6.21653 14.9994C4.84274 14.3669 3.98079 12.3612 3.98079 10.7406C3.98079 7.27925 6.50599 4.09292 11.2587 4.09292C15.0796 4.09292 18.0514 6.81267 18.0514 10.439C18.0514 14.2294 15.6557 17.2792 12.3237 17.2792C11.2081 17.2792 10.1606 16.7026 9.78932 16.0151L9.10104 18.6258C8.85385 19.5837 8.17844 20.7817 7.72449 21.5096C8.75644 21.8258 9.84353 22 10.9867 22C17.058 22 22 17.0821 22 11.0119C22 4.94083 17.058 0.0238333 10.9867 0.0238333L11.0161 0Z" fill="white"/>
</svg>
