<svg width="22" height="19" viewBox="0 0 22 19" fill="none" xmlns="http://www.w3.org/2000/svg">
<path d="M22 2.60156C21.175 3.01406 20.35 3.15156 19.3875 3.28906C20.35 2.73906 21.0375 1.91406 21.3125 0.814062C20.4875 1.36406 19.525 1.63906 18.425 1.91406C17.6 1.08906 16.3625 0.539062 15.125 0.539062C12.2375 0.539062 10.0375 3.28906 10.725 6.03906C7.0125 5.90156 3.7125 4.11406 1.375 1.36406C0.1375 3.42656 0.825 6.03906 2.75 7.41406C2.0625 7.41406 1.375 7.13906 0.6875 6.86406C0.6875 8.92656 2.2 10.8516 4.2625 11.4016C3.575 11.5391 2.8875 11.6766 2.2 11.5391C2.75 13.3266 4.4 14.7016 6.4625 14.7016C4.8125 15.9391 2.3375 16.6266 0 16.3516C2.0625 17.5891 4.4 18.4141 6.875 18.4141C15.2625 18.4141 19.9375 11.4016 19.6625 4.93906C20.625 4.38906 21.45 3.56406 22 2.60156Z" fill="white"/>
</svg>
