<svg width="29" height="29" viewBox="0 0 29 29" fill="none" xmlns="http://www.w3.org/2000/svg">
<path d="M3.29545 0C1.49325 0 0 1.49325 0 3.29545V25.7045C0 27.5067 1.49325 29 3.29545 29H25.7045C27.5067 29 29 27.5067 29 25.7045V3.29545C29 1.49325 27.5067 0 25.7045 0H3.29545Z" fill="#202020"/>
<path fill-rule="evenodd" clip-rule="evenodd" d="M7.16797 4.90137C5.91673 4.90137 4.90234 5.91575 4.90234 7.16699C4.90234 8.41824 5.91673 9.43262 7.16797 9.43262C8.41921 9.43262 9.43359 8.41824 9.43359 7.16699C9.43359 5.91575 8.41921 4.90137 7.16797 4.90137Z" fill="white"/>
<path fill-rule="evenodd" clip-rule="evenodd" d="M19.0722 10.916C17.1824 10.916 15.926 11.951 15.406 12.9345H15.3236V11.2044H11.6162V23.7271H15.4884V17.5481C15.4884 15.9158 15.8128 14.335 17.8364 14.335C19.8291 14.335 19.8548 16.1784 19.8548 17.6305V23.7271H23.727V16.8478C23.727 13.4803 23.0113 10.916 19.0722 10.916Z" fill="white"/>
<path fill-rule="evenodd" clip-rule="evenodd" d="M5.27246 11.2051V23.7278H9.18581V11.2051H5.27246Z" fill="white"/>
</svg>
