<svg width="12" height="22" viewBox="0 0 12 22" fill="none" xmlns="http://www.w3.org/2000/svg">
<path d="M11.4991 0.00457747L8.64624 0C5.4411 0 3.3698 2.12509 3.3698 5.41423V7.91055H0.501326C0.253457 7.91055 0.0527344 8.1115 0.0527344 8.35937V11.9763C0.0527344 12.2241 0.253685 12.4249 0.501326 12.4249H3.3698V21.5514C3.3698 21.7993 3.57052 22 3.81839 22H7.56092C7.80879 22 8.00952 21.799 8.00952 21.5514V12.4249H11.3634C11.6113 12.4249 11.812 12.2241 11.812 11.9763L11.8134 8.35937C11.8134 8.24036 11.766 8.12638 11.682 8.04215C11.598 7.95793 11.4836 7.91055 11.3646 7.91055H8.00952V5.79439C8.00952 4.77727 8.25189 4.26094 9.57684 4.26094L11.4987 4.26025C11.7463 4.26025 11.9471 4.0593 11.9471 3.81166V0.453169C11.9471 0.205757 11.7466 0.00503522 11.4991 0.00457747Z" fill="white"/>
</svg>
