<svg width="34" height="34" viewBox="0 0 34 34" fill="none" xmlns="http://www.w3.org/2000/svg">
<path d="M11.3333 19.8333H0V17H12.2853L11.3333 19.8333ZM0 34V22.6667H34V34H0ZM2.83333 31.1667H31.1667V25.5H28.3333V28.3333H26.9167V25.5H24.0833V29.75H22.6667V25.5H19.8333V28.3333H18.4167V25.5H15.5833V28.3333H14.1667V25.5H11.3333V29.75H9.91667V25.5H7.08333V28.3333H5.66667V25.5H2.83333V31.1667ZM16.1472 13.7983L14.1667 19.8333L20.1549 17.8047L16.1472 13.7983ZM29.9937 0L34 4.00633L21.8351 16.1245L17.8287 12.1182L29.9937 0Z" fill="#202020"/>
</svg>
