<svg width="29" height="29" viewBox="0 0 29 29" fill="none" xmlns="http://www.w3.org/2000/svg">
<path d="M3.29545 0C1.49325 0 0 1.49325 0 3.29545V25.7045C0 27.5067 1.49325 29 3.29545 29H25.7045C27.5067 29 29 27.5067 29 25.7045V3.29545C29 1.49325 27.5067 0 25.7045 0H3.29545Z" fill="white"/>
<path fill-rule="evenodd" clip-rule="evenodd" d="M7.16797 4.90186C5.91673 4.90186 4.90234 5.91624 4.90234 7.16748C4.90234 8.41872 5.91673 9.43311 7.16797 9.43311C8.41921 9.43311 9.43359 8.41872 9.43359 7.16748C9.43359 5.91624 8.41921 4.90186 7.16797 4.90186Z" fill="#020C2D"/>
<path fill-rule="evenodd" clip-rule="evenodd" d="M19.0712 10.916C17.1815 10.916 15.9251 11.951 15.405 12.9345H15.3226V11.2044H11.6152V23.7271H15.4874V17.5481C15.4874 15.9158 15.8118 14.335 17.8354 14.335C19.8281 14.335 19.8539 16.1784 19.8539 17.6305V23.7271H23.726V16.8478C23.726 13.4803 23.0103 10.916 19.0712 10.916Z" fill="#020C2D"/>
<path fill-rule="evenodd" clip-rule="evenodd" d="M5.27148 11.2046V23.7273H9.18484V11.2046H5.27148Z" fill="#020C2D"/>
</svg>
