<svg width="52" height="52" viewBox="0 0 52 52" fill="none" xmlns="http://www.w3.org/2000/svg">
<g clip-path="url(#clip0)">
<path d="M20.7261 36.7268C20.2898 36.9706 19.8667 37.0055 19.4567 36.8313C19.0466 36.6571 18.8416 36.3435 18.8416 35.8906V16.0577C18.8416 15.6048 19.051 15.2869 19.4698 15.104C19.8885 14.9211 20.3073 14.9603 20.7261 15.2216L36.5609 24.8636C36.9971 25.1424 37.2152 25.5213 37.2152 26.0003C37.2152 26.4794 36.9971 26.867 36.5609 27.1631L20.7261 36.7268ZM25.9869 51.3336C29.4767 51.3336 32.7527 50.6717 35.815 49.3477C38.8772 48.0238 41.5731 46.2034 43.9025 43.8865C46.2319 41.5696 48.0597 38.8782 49.3858 35.8123C50.7119 32.7463 51.375 29.48 51.375 26.0134C51.375 22.5119 50.7119 19.2369 49.3858 16.1884C48.0597 13.1399 46.2319 10.4528 43.9025 8.1272C41.5731 5.8016 38.8772 3.97684 35.815 2.6529C32.7527 1.32896 29.4767 0.666992 25.9869 0.666992C22.4971 0.666992 19.2211 1.32896 16.1588 2.6529C13.0966 3.97683 10.4051 5.80159 8.08438 8.1272C5.76368 10.4528 3.94028 13.1399 2.61417 16.1884C1.28806 19.2369 0.625 22.5119 0.625 26.0134C0.625 29.48 1.28369 32.7463 2.60108 35.8123C3.91847 38.8782 5.74188 41.5696 8.07129 43.8865C10.4007 46.2034 13.0966 48.0238 16.1588 49.3477C19.2211 50.6717 22.4971 51.3336 25.9869 51.3336Z" fill="#00DCAB"/>
</g>
<defs>
<clipPath id="clip0">
<rect width="50.75" height="50.6667" fill="white" transform="translate(0.625 0.666992)"/>
</clipPath>
</defs>
</svg>
