<svg width="14" height="16" viewBox="0 0 14 16" fill="none" xmlns="http://www.w3.org/2000/svg">
<path d="M9.14286 0H4.57143V1.52381H9.14286V0ZM6.09524 9.90476H7.61905V5.33333H6.09524V9.90476ZM12.2133 4.86857L13.2952 3.78667C12.9676 3.3981 12.6095 3.03238 12.221 2.71238L11.139 3.79429C9.9581 2.84952 8.47238 2.28571 6.85714 2.28571C3.07048 2.28571 0 5.35619 0 9.14286C0 12.9295 3.06286 16 6.85714 16C10.6514 16 13.7143 12.9295 13.7143 9.14286C13.7143 7.52762 13.1505 6.0419 12.2133 4.86857ZM6.85714 14.4762C3.90857 14.4762 1.52381 12.0914 1.52381 9.14286C1.52381 6.19429 3.90857 3.80952 6.85714 3.80952C9.80571 3.80952 12.1905 6.19429 12.1905 9.14286C12.1905 12.0914 9.80571 14.4762 6.85714 14.4762Z" fill="#202020"/>
</svg>
