<svg width="34" height="34" viewBox="0 0 34 34" fill="none" xmlns="http://www.w3.org/2000/svg">
<path d="M17 0C7.61175 0 0 7.61175 0 17C0 26.3882 7.61175 34 17 34C26.3882 34 34 26.3882 34 17C34 7.61175 26.3882 0 17 0ZM16.9986 8.14583C17.9761 8.14583 18.7708 8.93917 18.7708 9.91667C18.7708 10.8942 17.9761 11.6875 16.9986 11.6875C16.0211 11.6875 15.2292 10.8942 15.2292 9.91667C15.2292 8.93917 16.0211 8.14583 16.9986 8.14583ZM19.8333 25.5H14.1667V24.0833C14.8523 23.8298 15.5833 23.7986 15.5833 23.0421V16.7138C15.5833 15.9573 14.8523 15.8383 14.1667 15.5848V14.1681H18.4167V23.0435C18.4167 23.8014 19.1491 23.834 19.8333 24.0847V25.5Z" fill="#202020"/>
</svg>
