<svg width="12" height="12" viewBox="0 0 12 12" fill="none" xmlns="http://www.w3.org/2000/svg">
<path d="M4.69771 12C4.38637 12.0007 4.08328 11.8859 3.83416 11.6729L3.81871 11.6597L0.566623 8.82072C0.415912 8.68919 0.289411 8.52509 0.194339 8.3378C0.0992671 8.1505 0.03749 7.94368 0.0125393 7.72916C-0.0124113 7.51463 -4.8173e-05 7.29661 0.0489231 7.08753C0.0978943 6.87846 0.182513 6.68243 0.297946 6.51065C0.413379 6.33887 0.557364 6.19471 0.721676 6.0864C0.885987 5.97808 1.0674 5.90774 1.25556 5.87939C1.44372 5.85104 1.63494 5.86524 1.81829 5.92117C2.00163 5.97711 2.17352 6.07369 2.32412 6.20539L4.43058 8.04703L9.40847 0.644993C9.52392 0.473311 9.66789 0.329236 9.83218 0.220999C9.99646 0.112762 10.1778 0.0424812 10.3659 0.0141689C10.554 -0.0141434 10.7452 6.39334e-05 10.9285 0.0559868C11.1118 0.11191 11.2836 0.208451 11.4342 0.340094L11.4032 0.388011L11.435 0.340798C11.7387 0.606951 11.9374 0.999602 11.9876 1.43261C12.0377 1.86561 11.9351 2.30361 11.7024 2.65051L5.84718 11.3571C5.71176 11.5577 5.53763 11.7201 5.33828 11.8316C5.13894 11.9431 4.91975 12.0007 4.69771 12Z" fill="white"/>
</svg>
