<svg width="22" height="22" viewBox="0 0 22 22" fill="none" xmlns="http://www.w3.org/2000/svg">
<path d="M4.95001 22H0.274996V7.2875H4.95001V22ZM2.6125 5.225C1.1 5.225 0 4.125 0 2.6125C0 1.1 1.2375 0 2.6125 0C4.125 0 5.225 1.1 5.225 2.6125C5.225 4.125 4.125 5.225 2.6125 5.225ZM22 22H17.325V14.025C17.325 11.6875 16.3625 11 14.9875 11C13.6125 11 12.2375 12.1 12.2375 14.1625V22H7.5625V7.2875H11.9625V9.35C12.375 8.3875 14.025 6.875 16.3625 6.875C18.975 6.875 21.725 8.3875 21.725 12.925V22H22Z" fill="white"/>
</svg>
