<svg width="164" height="50" viewBox="0 0 164 50" fill="none" xmlns="http://www.w3.org/2000/svg">
<path d="M60.3918 25.2969H68.1259C71.7037 25.2969 73.8033 23.7329 73.8033 21.162V21.1192C73.8033 19.0839 72.6464 18.0555 70.8253 17.4556C72.1536 16.8772 73.1392 15.8488 73.1392 14.1134V14.0706C73.1392 13.0422 72.7749 12.2495 72.1751 11.6497C71.2967 10.7713 69.9684 10.2999 68.083 10.2999H60.3918V25.2969ZM64.4409 16.2773V13.6421H67.1404C68.383 13.6421 69.0257 14.1134 69.0257 14.9276V14.9704C69.0257 15.8488 68.3187 16.2773 67.0547 16.2773H64.4409ZM64.4409 21.9547V19.191H67.6117C69.0043 19.191 69.647 19.7266 69.647 20.5407V20.5836C69.647 21.4619 68.9186 21.9547 67.6546 21.9547H64.4409Z" fill="white"/>
<path d="M82.4553 25.5754C86.7188 25.5754 89.4825 23.4544 89.4825 18.6125V10.2999H85.2619V18.7411C85.2619 20.8406 84.1693 21.8262 82.4982 21.8262C80.8271 21.8262 79.7345 20.7978 79.7345 18.634V10.2999H75.5139V18.7196C75.5139 23.4115 78.1919 25.5754 82.4553 25.5754Z" fill="white"/>
<path d="M91.9422 25.2969H96.0985V20.7549H97.9196L100.94 25.2969H105.739L102.162 20.0694C104.025 19.2767 105.247 17.7556 105.247 15.4632V15.4203C105.247 13.9421 104.797 12.7851 103.918 11.9282C102.911 10.8998 101.326 10.2999 99.0336 10.2999H91.9422V25.2969ZM96.0985 17.4985V13.8992H98.8194C100.212 13.8992 101.069 14.4991 101.069 15.6774V15.7203C101.069 16.8129 100.255 17.4985 98.8408 17.4985H96.0985Z" fill="white"/>
<path d="M114.989 25.5968C117.71 25.5968 119.917 24.5899 121.502 23.283V16.5344H114.604V19.5766H117.56V21.3977C116.939 21.8047 116.168 22.019 115.161 22.019C112.783 22.019 111.09 20.2836 111.09 17.8627V17.8198C111.09 15.5274 112.761 13.7064 114.925 13.7064C116.403 13.7064 117.475 14.2206 118.546 15.1204L120.988 12.1853C119.403 10.8141 117.539 10 114.904 10C110.255 10 106.827 13.4279 106.827 17.7984V17.8413C106.827 22.3832 110.319 25.5968 114.989 25.5968Z" fill="white"/>
<path d="M123.807 25.2969H135.975V21.7619H127.92V19.3838H135.119V16.1059H127.92V13.8349H135.868V10.2999H123.807V25.2969Z" fill="white"/>
<path d="M143.988 25.554C147.63 25.554 150.051 23.7329 150.051 20.6693V20.6264C150.051 17.8198 147.909 16.7058 144.459 15.9559C142.381 15.4846 141.867 15.1847 141.867 14.4991V14.4562C141.867 13.9206 142.36 13.4921 143.367 13.4921C144.695 13.4921 146.195 14.0063 147.566 14.9704L149.644 12.0353C148.016 10.7284 146.023 10.0428 143.474 10.0428C139.875 10.0428 137.668 12.0567 137.668 14.8419V14.8847C137.668 17.9698 140.132 18.8696 143.324 19.598C145.359 20.0694 145.852 20.4122 145.852 21.0335V21.0763C145.852 21.719 145.252 22.1047 144.138 22.1047C142.403 22.1047 140.753 21.4834 139.275 20.305L136.961 23.0688C138.803 24.7184 141.331 25.554 143.988 25.554Z" fill="white"/>
<path d="M157.755 25.554C161.397 25.554 163.818 23.7329 163.818 20.6693V20.6264C163.818 17.8198 161.675 16.7058 158.226 15.9559C156.148 15.4846 155.634 15.1847 155.634 14.4991V14.4562C155.634 13.9206 156.126 13.4921 157.133 13.4921C158.462 13.4921 159.961 14.0063 161.333 14.9704L163.411 12.0353C161.782 10.7284 159.79 10.0428 157.241 10.0428C153.641 10.0428 151.435 12.0567 151.435 14.8419V14.8847C151.435 17.9698 153.898 18.8696 157.091 19.598C159.126 20.0694 159.619 20.4122 159.619 21.0335V21.0763C159.619 21.719 159.019 22.1047 157.905 22.1047C156.169 22.1047 154.52 21.4834 153.041 20.305L150.728 23.0688C152.57 24.7184 155.098 25.554 157.755 25.554Z" fill="white"/>
<path d="M64.8342 40C66.5834 40 67.6852 39.3251 68.6906 38.306L67.9744 37.6036C67.0516 38.485 66.1839 38.9946 64.8618 38.9946C62.7408 38.9946 61.1294 37.2455 61.1294 35.0143V34.9867C61.1294 32.7693 62.727 31.034 64.8618 31.034C66.1702 31.034 67.0792 31.5849 67.8918 32.3562L68.6355 31.5573C67.6714 30.6483 66.6247 30.0286 64.8755 30.0286C62.0384 30.0286 60 32.2873 60 35.0143V35.0418C60 37.8101 62.0521 40 64.8342 40Z" fill="white"/>
<path d="M74.8022 40C77.7358 40 79.7328 37.6724 79.7328 35.0143V34.9867C79.7328 32.3286 77.7633 30.0286 74.8298 30.0286C71.8962 30.0286 69.8991 32.3562 69.8991 35.0143V35.0418C69.8991 37.7 71.8686 40 74.8022 40ZM74.8298 38.9946C72.6261 38.9946 71.0285 37.2041 71.0285 35.0143V34.9867C71.0285 32.7969 72.5986 31.034 74.8022 31.034C77.0058 31.034 78.6035 32.8244 78.6035 35.0143V35.0418C78.6035 37.2317 77.0334 38.9946 74.8298 38.9946Z" fill="white"/>
<path d="M82.0275 39.8347H83.088V32.0394L86.6 37.1904H86.6551L90.1672 32.0256V39.8347H91.2552V30.1938H90.1534L86.6413 35.455L83.1293 30.1938H82.0275V39.8347Z" fill="white"/>
<path d="M93.9845 39.8347H95.045V32.0394L98.557 37.1904H98.6121L102.124 32.0256V39.8347H103.212V30.1938H102.11L98.5983 35.455L95.0863 30.1938H93.9845V39.8347Z" fill="white"/>
<path d="M105.941 39.8347H112.979V38.8431H107.029V35.4688H112.291V34.4771H107.029V31.1855H112.91V30.1938H105.941V39.8347Z" fill="white"/>
<path d="M115.168 39.8347H116.256V36.0886H119.011L121.806 39.8347H123.142L120.181 35.8957C121.696 35.6203 122.798 34.6837 122.798 33.0861V33.0586C122.798 32.3011 122.523 31.6262 122.054 31.1579C121.448 30.5519 120.498 30.1938 119.314 30.1938H115.168V39.8347ZM116.256 35.1107V31.1992H119.231C120.787 31.1992 121.696 31.9154 121.696 33.0999V33.1274C121.696 34.367 120.663 35.1107 119.217 35.1107H116.256Z" fill="white"/>
<path d="M129.528 40C131.277 40 132.379 39.3251 133.385 38.306L132.668 37.6036C131.746 38.485 130.878 38.9946 129.556 38.9946C127.435 38.9946 125.823 37.2455 125.823 35.0143V34.9867C125.823 32.7693 127.421 31.034 129.556 31.034C130.864 31.034 131.773 31.5849 132.586 32.3562L133.33 31.5573C132.365 30.6483 131.319 30.0286 129.57 30.0286C126.732 30.0286 124.694 32.2873 124.694 35.0143V35.0418C124.694 37.8101 126.746 40 129.528 40Z" fill="white"/>
<path d="M135.289 39.8347H142.327V38.8431H136.377V35.4688H141.638V34.4771H136.377V31.1855H142.258V30.1938H135.289V39.8347Z" fill="white"/>
<path d="M0 3C0 1.34315 1.34315 0 3 0H47C48.6569 0 50 1.34315 50 3V47C50 48.6569 48.6569 50 47 50H3C1.34315 50 0 48.6569 0 47V3Z" fill="#00DCAB"/>
<path d="M31.1624 24.6154C32.9003 24.9858 34.2963 25.8547 35.3504 27.2222C36.4046 28.5613 36.9316 30.0997 36.9316 31.8376C36.9316 34.3447 36.0484 36.339 34.2821 37.8205C32.5442 39.2735 30.1083 40 26.9744 40H16C14.3431 40 13 38.6569 13 37V13C13 11.3431 14.3431 10 16 10H26.5043C29.5527 10 31.9316 10.698 33.641 12.094C35.3789 13.49 36.2479 15.3846 36.2479 17.7778C36.2479 19.5442 35.7778 21.0114 34.8376 22.1795C33.9259 23.3476 32.7009 24.1595 31.1624 24.6154Z" fill="#01081E"/>
</svg>
