<svg width="140" height="100" viewBox="0 0 140 100" fill="none" xmlns="http://www.w3.org/2000/svg">
<path d="M69.9993 0L26.6426 25.035V74.9651L39.0202 82.1679L38.9503 32.1679L69.8594 14.2657L100.838 32.1679V82.098L113.216 74.9651V24.9651L69.9993 0Z" fill="#767676"/>
<path d="M76.0834 82.168L69.9295 85.7345L63.7058 82.168V32.168L51.3281 39.3008L51.3981 89.3009L69.9295 100L88.461 89.3009V39.3008L76.0834 32.168V82.168Z" fill="#767676"/>
<path d="M118.182 38.1814H139.86L131.538 49.0905L139.86 59.3702H118.182V38.1814Z" fill="#767676"/>
<path d="M118.182 44.965C118.182 44.965 130.769 44.895 130.629 44.895C130.28 44.895 118.182 38.1118 118.182 38.1118" fill="#767676"/>
<path d="M21.6783 38.1814H0L8.32168 49.0905L0 59.3702H21.6783V38.1814Z" fill="#767676"/>
<path d="M21.6792 44.965C21.6792 44.965 9.09177 44.895 9.23163 44.895C9.58128 44.965 21.6792 38.1118 21.6792 38.1118" fill="#767676"/>
<path d="M9.16016 44.825H130.699V68.5313H9.16016V44.825Z" fill="#767676"/>
<path d="M13.916 50.9797H17.4125C19.8601 50.9797 21.2587 52.0986 21.2587 54.1965V54.2664C21.2587 56.4343 19.7901 57.4133 17.4825 57.4133H16.2237V61.1196H13.916V50.9797ZM17.4125 55.8748C18.5314 55.8748 19.1608 55.3154 19.1608 54.3364V54.2664C19.1608 53.2175 18.5314 52.728 17.4125 52.728H16.2237V55.8748H17.4125Z" fill="white"/>
<path d="M23.2164 50.9788H26.8528C29.2304 50.9788 30.7689 51.9578 30.7689 54.0557V54.1256C30.7689 55.6641 29.8598 56.5032 28.671 56.8529L31.3283 61.1886H28.8808L26.4332 57.2725H25.4542V61.1886H23.1465V50.9788H23.2164ZM26.7829 55.6641C27.9017 55.6641 28.5311 55.1746 28.5311 54.1955V54.1256C28.5311 53.0767 27.9017 52.727 26.7829 52.727H25.5241V55.6641H26.7829Z" fill="white"/>
<path d="M32.4473 56.1541V56.0142C32.4473 53.0072 34.685 50.8394 37.692 50.8394C40.769 50.8394 42.9368 52.8673 42.9368 55.9443V56.0841C42.9368 59.0911 40.8389 61.3289 37.692 61.3289C34.4752 61.3289 32.4473 59.0911 32.4473 56.1541ZM40.5592 56.0841V55.9443C40.5592 53.9862 39.5102 52.5876 37.762 52.5876C36.0137 52.5876 34.9647 53.8464 34.9647 55.9443V56.0841C34.9647 58.182 36.1536 59.4408 37.8319 59.4408C39.4403 59.4408 40.5592 58.1121 40.5592 56.0841Z" fill="white"/>
<path d="M44.9648 50.9788H51.4683V52.7969H47.2725V55.4543H50.6292V57.2025H47.2725V61.1186H44.9648V50.9788Z" fill="white"/>
<path d="M53.4258 50.9788H60.0691V52.7969H55.7335V55.1746H59.23V56.8529H55.7335V59.3704H60.2789V61.1886H53.4258V50.9788Z" fill="white"/>
<path d="M61.6094 57.9721H63.8471C63.9171 58.8812 64.3367 59.6504 65.8052 59.6504C66.7842 59.6504 67.4835 59.091 67.4835 58.3218C67.4835 57.4826 67.0639 57.2029 65.5954 56.9931C63.008 56.6434 61.959 55.8742 61.959 53.9162C61.959 52.1679 63.4276 50.9092 65.6653 50.9092C67.973 50.9092 69.3017 51.9581 69.4416 53.9162H67.3436C67.2038 53.0071 66.6443 52.5875 65.6653 52.5875C64.6863 52.5875 64.1269 53.077 64.1269 53.7064C64.1269 54.4057 64.4765 54.7553 66.015 54.9651C68.4625 55.2448 69.7213 55.9441 69.7213 58.0421C69.7213 59.8602 68.2527 61.2588 65.8751 61.2588C63.008 61.3288 61.7492 60.0001 61.6094 57.9721Z" fill="white"/>
<path d="M70.9082 57.9721H73.146C73.2159 58.8812 73.6355 59.6504 75.104 59.6504C76.083 59.6504 76.7823 59.091 76.7823 58.3218C76.7823 57.4826 76.3628 57.2029 74.8942 56.9931C72.3068 56.6434 71.2579 55.8742 71.2579 53.9162C71.2579 52.1679 72.7264 50.9092 74.9642 50.9092C77.2718 50.9092 78.6005 51.9581 78.7404 53.9162H76.6425C76.5026 53.0071 75.9432 52.5875 74.9642 52.5875C73.9851 52.5875 73.4257 53.077 73.4257 53.7064C73.4257 54.4057 73.7753 54.7553 75.3138 54.9651C77.7614 55.2448 79.0201 55.9441 79.0201 58.0421C79.0201 59.8602 77.5516 61.2588 75.1739 61.2588C72.3068 61.3288 71.0481 60.0001 70.9082 57.9721Z" fill="white"/>
<path d="M81.1191 50.9788H83.4268V61.1186H81.1191V50.9788Z" fill="white"/>
<path d="M85.5254 56.1541V56.0142C85.5254 53.0072 87.7632 50.8394 90.7702 50.8394C93.8471 50.8394 96.0149 52.8673 96.0149 55.9443V56.0841C96.0149 59.0911 93.917 61.3289 90.7702 61.3289C87.5534 61.3289 85.5254 59.0911 85.5254 56.1541ZM93.5674 56.0841V55.9443C93.5674 53.9862 92.5184 52.5876 90.7702 52.5876C89.0219 52.5876 87.9729 53.8464 87.9729 55.9443V56.0841C87.9729 58.182 89.1618 59.4408 90.8401 59.4408C92.5184 59.4408 93.5674 58.1121 93.5674 56.0841Z" fill="white"/>
<path d="M98.0426 50.9788H100.7L104.546 57.692V50.9788H106.574V61.1186H104.266L100.001 53.9158V61.1186H97.9727V50.9788H98.0426Z" fill="white"/>
<path d="M111.749 50.9788H114.756L118.043 61.1186H115.665L114.966 58.8809H111.26L110.56 61.1186H108.393L111.749 50.9788ZM111.749 57.2725H114.407L113.078 52.8669L111.749 57.2725Z" fill="white"/>
<path d="M119.791 50.9788H122.099V59.3704H126.225V61.1886H119.791V50.9788Z" fill="white"/>
</svg>
