<svg width="142" height="102" viewBox="0 0 142 102" fill="none" xmlns="http://www.w3.org/2000/svg">
<path d="M71.0708 0L27.0508 25.418V76.112L39.6178 83.425L39.5468 32.66L70.9288 14.484L102.382 32.66V83.354L114.949 76.112V25.347L71.0708 0Z" fill="#202020"/>
<path d="M77.2483 83.4252L71.0003 87.0462L64.6813 83.4252V32.6602L52.1143 39.9022L52.1853 90.6672L71.0003 101.53L89.8153 90.6672V39.9022L77.2483 32.6602V83.4252Z" fill="#202020"/>
<path d="M119.99 38.7656H142L133.551 49.8416L142 60.2786H119.99V38.7656Z" fill="#202020"/>
<path d="M119.99 45.6533C119.99 45.6533 132.77 45.5823 132.628 45.5823C132.273 45.5823 119.99 38.6953 119.99 38.6953" fill="#202020"/>
<path d="M22.01 38.7656H0L8.449 49.8416L0 60.2786H22.01V38.7656Z" fill="#202020"/>
<path d="M22.0103 45.6533C22.0103 45.6533 9.23027 45.5823 9.37227 45.5823C9.72727 45.6533 22.0103 38.6953 22.0103 38.6953" fill="#202020"/>
<path d="M9.30078 45.5107H132.699V69.5798H9.30078V45.5107Z" fill="#202020"/>
<path d="M14.1289 51.7598H17.6789C20.1639 51.7598 21.5839 52.8958 21.5839 55.0258V55.0968C21.5839 57.2978 20.0929 58.2918 17.7499 58.2918H16.4719V62.0548H14.1289V51.7598ZM17.6789 56.7298C18.8149 56.7298 19.4539 56.1618 19.4539 55.1678V55.0968C19.4539 54.0318 18.8149 53.5348 17.6789 53.5348H16.4719V56.7298H17.6789Z" fill="white"/>
<path d="M23.572 51.7588H27.264C29.678 51.7588 31.24 52.7528 31.24 54.8828V54.9538C31.24 56.5158 30.317 57.3678 29.11 57.7228L31.808 62.1248H29.323L26.838 58.1488H25.844V62.1248H23.501V51.7588H23.572ZM27.193 56.5158C28.329 56.5158 28.968 56.0188 28.968 55.0248V54.9538C28.968 53.8888 28.329 53.5338 27.193 53.5338H25.915V56.5158H27.193Z" fill="white"/>
<path d="M32.9443 57.0132V56.8712C32.9443 53.8182 35.2163 51.6172 38.2693 51.6172C41.3933 51.6172 43.5943 53.6762 43.5943 56.8002V56.9422C43.5943 59.9952 41.4643 62.2672 38.2693 62.2672C35.0033 62.2672 32.9443 59.9952 32.9443 57.0132ZM41.1803 56.9422V56.8002C41.1803 54.8122 40.1153 53.3922 38.3403 53.3922C36.5653 53.3922 35.5003 54.6702 35.5003 56.8002V56.9422C35.5003 59.0722 36.7073 60.3502 38.4113 60.3502C40.0443 60.3502 41.1803 59.0012 41.1803 56.9422Z" fill="white"/>
<path d="M45.6533 51.7588H52.2563V53.6048H47.9963V56.3028H51.4043V58.0778H47.9963V62.0538H45.6533V51.7588Z" fill="white"/>
<path d="M54.2441 51.7588H60.9891V53.6048H56.5871V56.0188H60.1371V57.7228H56.5871V60.2788H61.2021V62.1248H54.2441V51.7588Z" fill="white"/>
<path d="M62.5508 58.8585H64.8228C64.8938 59.7815 65.3198 60.5625 66.8108 60.5625C67.8048 60.5625 68.5148 59.9945 68.5148 59.2135C68.5148 58.3615 68.0888 58.0775 66.5978 57.8645C63.9708 57.5095 62.9058 56.7285 62.9058 54.7405C62.9058 52.9655 64.3968 51.6875 66.6688 51.6875C69.0118 51.6875 70.3608 52.7525 70.5028 54.7405H68.3728C68.2308 53.8175 67.6628 53.3915 66.6688 53.3915C65.6748 53.3915 65.1068 53.8885 65.1068 54.5275C65.1068 55.2375 65.4618 55.5925 67.0238 55.8055C69.5088 56.0895 70.7868 56.7995 70.7868 58.9295C70.7868 60.7755 69.2958 62.1955 66.8818 62.1955C63.9708 62.2665 62.6928 60.9175 62.5508 58.8585Z" fill="white"/>
<path d="M71.9941 58.8585H74.2661C74.3371 59.7815 74.7631 60.5625 76.2541 60.5625C77.2481 60.5625 77.9581 59.9945 77.9581 59.2135C77.9581 58.3615 77.5321 58.0775 76.0411 57.8645C73.4141 57.5095 72.3491 56.7285 72.3491 54.7405C72.3491 52.9655 73.8401 51.6875 76.1121 51.6875C78.4551 51.6875 79.8041 52.7525 79.9461 54.7405H77.8161C77.6741 53.8175 77.1061 53.3915 76.1121 53.3915C75.1181 53.3915 74.5501 53.8885 74.5501 54.5275C74.5501 55.2375 74.9051 55.5925 76.4671 55.8055C78.9521 56.0895 80.2301 56.7995 80.2301 58.9295C80.2301 60.7755 78.7391 62.1955 76.3251 62.1955C73.4141 62.2665 72.1361 60.9175 71.9941 58.8585Z" fill="white"/>
<path d="M82.3604 51.7588H84.7033V62.0538H82.3604V51.7588Z" fill="white"/>
<path d="M86.833 57.0132V56.8712C86.833 53.8182 89.105 51.6172 92.158 51.6172C95.282 51.6172 97.483 53.6762 97.483 56.8002V56.9422C97.483 59.9952 95.353 62.2672 92.158 62.2672C88.892 62.2672 86.833 59.9952 86.833 57.0132ZM94.998 56.9422V56.8002C94.998 54.8122 93.933 53.3922 92.158 53.3922C90.383 53.3922 89.318 54.6702 89.318 56.8002V56.9422C89.318 59.0722 90.525 60.3502 92.229 60.3502C93.933 60.3502 94.998 59.0012 94.998 56.9422Z" fill="white"/>
<path d="M99.5417 51.7588H102.24L106.145 58.5748V51.7588H108.204V62.0538H105.861L101.53 54.7408V62.0538H99.4707V51.7588H99.5417Z" fill="white"/>
<path d="M113.458 51.7588H116.511L119.848 62.0538H117.434L116.724 59.7818H112.961L112.251 62.0538H110.05L113.458 51.7588ZM113.458 58.1488H116.156L114.807 53.6758L113.458 58.1488Z" fill="white"/>
<path d="M121.623 51.7588H123.966V60.2788H128.155V62.1248H121.623V51.7588Z" fill="white"/>
</svg>
