<svg width="77" height="55" viewBox="0 0 77 55" fill="none" xmlns="http://www.w3.org/2000/svg">
<path d="M38.2752 0L14.6133 13.6629V40.9123L21.3684 44.8432L21.3302 17.5556L38.1989 7.78555L55.1058 17.5556V44.8051L61.8609 40.9123V13.6247L38.2752 0Z" fill="#767676"/>
<path d="M41.5962 44.8437L38.2377 46.7901L34.841 44.8437V17.5562L28.0859 21.4489L28.1241 48.7365L38.2377 54.5757L48.3513 48.7365V21.4489L41.5962 17.5562V44.8437Z" fill="#767676"/>
<path d="M64.5703 20.8374H76.4013L71.8597 26.7911L76.4013 32.4012H64.5703V20.8374Z" fill="#767676"/>
<path d="M64.5703 24.5394C64.5703 24.5394 71.4399 24.5013 71.3636 24.5013C71.1728 24.5013 64.5703 20.7993 64.5703 20.7993" fill="#767676"/>
<path d="M11.9032 20.8374H0.0722656L4.61384 26.7911L0.0722656 32.4012H11.9032V20.8374Z" fill="#767676"/>
<path d="M11.9033 24.5394C11.9033 24.5394 5.03368 24.5013 5.11001 24.5013C5.30083 24.5394 11.9033 20.7993 11.9033 20.7993" fill="#767676"/>
<path d="M5.07227 24.4639H71.4021V37.4016H5.07227V24.4639Z" fill="#767676"/>
<path d="M7.66797 27.8223H9.57619C10.9119 27.8223 11.6752 28.4329 11.6752 29.5778V29.616C11.6752 30.7991 10.8738 31.3334 9.61436 31.3334H8.9274V33.3561H7.66797V27.8223ZM9.57619 30.4938C10.1868 30.4938 10.5303 30.1885 10.5303 29.6542V29.616C10.5303 29.0435 10.1868 28.7764 9.57619 28.7764H8.9274V30.4938H9.57619Z" fill="white"/>
<path d="M12.7432 27.8213H14.7278C16.0254 27.8213 16.865 28.3556 16.865 29.5005V29.5387C16.865 30.3783 16.3689 30.8363 15.7201 31.0271L17.1703 33.3933H15.8346L14.4988 31.2561H13.9645V33.3933H12.7051V27.8213H12.7432ZM14.6896 30.3783C15.3003 30.3783 15.6437 30.1112 15.6437 29.5769V29.5387C15.6437 28.9662 15.3003 28.7754 14.6896 28.7754H14.0027V30.3783H14.6896Z" fill="white"/>
<path d="M17.7812 30.6466V30.5703C17.7812 28.9292 19.0025 27.7461 20.6436 27.7461C22.3228 27.7461 23.5059 28.8529 23.5059 30.5321V30.6084C23.5059 32.2495 22.361 33.4708 20.6436 33.4708C18.888 33.4708 17.7812 32.2495 17.7812 30.6466ZM22.2083 30.6084V30.5321C22.2083 29.4635 21.6359 28.7002 20.6817 28.7002C19.7276 28.7002 19.1552 29.3872 19.1552 30.5321V30.6084C19.1552 31.7534 19.804 32.4403 20.7199 32.4403C21.5977 32.4403 22.2083 31.7152 22.2083 30.6084Z" fill="white"/>
<path d="M24.6113 27.8213H28.1606V28.8136H25.8708V30.2638H27.7026V31.2179H25.8708V33.3551H24.6113V27.8213Z" fill="white"/>
<path d="M29.2305 27.8213H32.8561V28.8136H30.4899V30.1112H32.3981V31.0271H30.4899V32.401H32.9706V33.3933H29.2305V27.8213Z" fill="white"/>
<path d="M33.6953 31.6388H34.9166C34.9547 32.1349 35.1837 32.5547 35.9852 32.5547C36.5195 32.5547 36.9011 32.2494 36.9011 31.8296C36.9011 31.3716 36.6721 31.219 35.8707 31.1045C34.4586 30.9137 33.8861 30.4939 33.8861 29.4253C33.8861 28.4711 34.6876 27.7842 35.9089 27.7842C37.1683 27.7842 37.8934 28.3566 37.9697 29.4253H36.8248C36.7485 28.9291 36.4432 28.7001 35.9089 28.7001C35.3745 28.7001 35.0692 28.9673 35.0692 29.3108C35.0692 29.6924 35.2601 29.8832 36.0997 29.9977C37.4354 30.1504 38.1224 30.532 38.1224 31.677C38.1224 32.6692 37.3209 33.4325 36.0233 33.4325C34.4586 33.4707 33.7716 32.7456 33.6953 31.6388Z" fill="white"/>
<path d="M38.7715 31.6388H39.9927C40.0309 32.1349 40.2599 32.5547 41.0614 32.5547C41.5957 32.5547 41.9773 32.2494 41.9773 31.8296C41.9773 31.3716 41.7483 31.219 40.9469 31.1045C39.5348 30.9137 38.9623 30.4939 38.9623 29.4253C38.9623 28.4711 39.7638 27.7842 40.985 27.7842C42.2445 27.7842 42.9696 28.3566 43.0459 29.4253H41.901C41.8246 28.9291 41.5193 28.7001 40.985 28.7001C40.4507 28.7001 40.1454 28.9673 40.1454 29.3108C40.1454 29.6924 40.3362 29.8832 41.1758 29.9977C42.5116 30.1504 43.1986 30.532 43.1986 31.677C43.1986 32.6692 42.3971 33.4325 41.0995 33.4325C39.5348 33.4707 38.8478 32.7456 38.7715 31.6388Z" fill="white"/>
<path d="M44.3438 27.8213H45.6032V33.3551H44.3438V27.8213Z" fill="white"/>
<path d="M46.748 30.6466V30.5703C46.748 28.9292 47.9693 27.7461 49.6104 27.7461C51.2896 27.7461 52.4727 28.8529 52.4727 30.5321V30.6084C52.4727 32.2495 51.3278 33.4708 49.6104 33.4708C47.8548 33.4708 46.748 32.2495 46.748 30.6466ZM51.137 30.6084V30.5321C51.137 29.4635 50.5645 28.7002 49.6104 28.7002C48.6563 28.7002 48.0838 29.3872 48.0838 30.5321V30.6084C48.0838 31.7534 48.7326 32.4403 49.6485 32.4403C50.5645 32.4403 51.137 31.7152 51.137 30.6084Z" fill="white"/>
<path d="M53.5792 27.8213H55.0294L57.1285 31.4851V27.8213H58.2352V33.3551H56.9758L54.6478 29.4242V33.3551H53.541V27.8213H53.5792Z" fill="white"/>
<path d="M61.0585 27.8213H62.6995L64.4933 33.3551H63.1957L62.814 32.1339H60.7913L60.4097 33.3551H59.2266L61.0585 27.8213ZM61.0585 31.2561H62.5087L61.7836 28.8517L61.0585 31.2561Z" fill="white"/>
<path d="M65.4492 27.8213H66.7086V32.401H68.9603V33.3933H65.4492V27.8213Z" fill="white"/>
</svg>
