<svg width="156" height="30" viewBox="0 0 156 30" fill="none" xmlns="http://www.w3.org/2000/svg">
<path d="M28.2094 12.9053C28.9959 12.3373 28.5941 11.0947 27.6239 11.0947H19.7128C19.2801 11.0947 18.8965 10.8164 18.7622 10.4051L16.3134 2.90606C16.0133 1.98711 14.7135 1.98646 14.4125 2.90512L11.955 10.4053C11.8202 10.8165 11.4364 11.0944 11.0037 11.094L3.09639 11.0864C2.12585 11.0855 1.7231 12.3286 2.50976 12.897L8.90692 17.5194C9.25964 17.7743 9.40705 18.228 9.27148 18.6415L6.82295 26.1099C6.52127 27.03 7.57291 27.7989 8.35824 27.2324L14.779 22.6005C15.1285 22.3483 15.6002 22.3485 15.9496 22.6008L22.3605 27.2317C23.1453 27.7986 24.1974 27.0306 23.8965 26.1103L21.455 18.6412C21.3199 18.2278 21.4674 17.7745 21.82 17.5198L28.2094 12.9053Z" fill="#00DCAB"/>
<path d="M59.098 12.9053C59.8845 12.3373 59.4827 11.0947 58.5126 11.0947H50.6015C50.1688 11.0947 49.7852 10.8164 49.6509 10.4051L47.202 2.90606C46.902 1.98711 45.6022 1.98646 45.3012 2.90512L42.8436 10.4053C42.7089 10.8165 42.325 11.0944 41.8924 11.094L33.9851 11.0864C33.0145 11.0855 32.6118 12.3286 33.3984 12.897L39.7956 17.5194C40.1483 17.7743 40.2957 18.228 40.1601 18.6415L37.7116 26.1099C37.4099 27.03 38.4616 27.7989 39.2469 27.2324L45.6676 22.6005C46.0171 22.3483 46.4889 22.3485 46.8382 22.6008L53.2491 27.2317C54.034 27.7986 55.086 27.0306 54.7852 26.1103L52.3437 18.6412C52.2085 18.2278 52.3561 17.7745 52.7087 17.5198L59.098 12.9053Z" fill="#00DCAB"/>
<path d="M90.973 12.9053C91.7595 12.3373 91.3577 11.0947 90.3876 11.0947H82.4765C82.0438 11.0947 81.6602 10.8164 81.5259 10.4051L79.077 2.90606C78.777 1.98711 77.4772 1.98646 77.1762 2.90512L74.7186 10.4053C74.5839 10.8165 74.2 11.0944 73.7674 11.094L65.8601 11.0864C64.8895 11.0855 64.4868 12.3286 65.2734 12.897L71.6706 17.5194C72.0233 17.7743 72.1707 18.228 72.0351 18.6415L69.5866 26.1099C69.2849 27.03 70.3366 27.7989 71.1219 27.2324L77.5426 22.6005C77.8921 22.3483 78.3639 22.3485 78.7132 22.6008L85.1241 27.2317C85.909 27.7986 86.961 27.0306 86.6602 26.1103L84.2187 18.6412C84.0835 18.2278 84.2311 17.7745 84.5837 17.5198L90.973 12.9053Z" fill="#00DCAB"/>
<path d="M121.86 12.9053C122.646 12.3373 122.244 11.0947 121.274 11.0947H113.363C112.931 11.0947 112.547 10.8164 112.413 10.4051L109.964 2.90606C109.664 1.98711 108.364 1.98646 108.063 2.90512L105.605 10.4053C105.471 10.8165 105.087 11.0944 104.654 11.094L96.7468 11.0864C95.7762 11.0855 95.3735 12.3286 96.1601 12.897L102.557 17.5194C102.91 17.7743 103.057 18.228 102.922 18.6415L100.473 26.1099C100.172 27.03 101.223 27.7989 102.009 27.2324L108.429 22.6005C108.779 22.3483 109.251 22.3485 109.6 22.6008L116.011 27.2317C116.796 27.7986 117.848 27.0306 117.547 26.1103L115.105 18.6412C114.97 18.2278 115.118 17.7745 115.47 17.5198L121.86 12.9053Z" fill="#00DCAB"/>
<path d="M152.748 12.9053C153.535 12.3373 153.133 11.0947 152.163 11.0947H144.252C143.819 11.0947 143.436 10.8164 143.301 10.4051L140.852 2.90606C140.552 1.98711 139.253 1.98646 138.952 2.90512L136.494 10.4053C136.359 10.8165 135.975 11.0944 135.543 11.094L127.635 11.0864C126.665 11.0855 126.262 12.3286 127.049 12.897L133.446 17.5194C133.799 17.7743 133.946 18.228 133.811 18.6415L131.362 26.1099C131.06 27.03 132.112 27.7989 132.897 27.2324L139.318 22.6005C139.668 22.3483 140.139 22.3485 140.489 22.6008L146.9 27.2317C147.684 27.7986 148.736 27.0306 148.436 26.1103L145.994 18.6412C145.859 18.2278 146.006 17.7745 146.359 17.5198L152.748 12.9053Z" fill="#00DCAB"/>
</svg>
