<svg width="45" height="50" viewBox="0 0 45 50" fill="none" xmlns="http://www.w3.org/2000/svg">
<path d="M20.7309 1.71968C21.0157 1.71968 21.3027 1.81352 21.5773 1.99722C19.4622 2.96398 17.1951 5.39906 16.2376 10.2616C14.8383 10.6825 13.4706 11.0938 12.2061 11.4744C13.3275 7.76546 15.9906 1.71968 20.7309 1.71968ZM22.6918 3.52263C23.0975 4.51057 23.3614 5.92816 23.3614 7.84133C23.3614 7.93917 23.3606 8.02862 23.3598 8.11927C21.7532 8.60246 20.0086 9.12716 18.2594 9.65347C19.2415 5.9717 21.0823 4.1935 22.6918 3.52263ZM27.5603 6.8566C26.8273 7.07703 25.9941 7.32741 25.0909 7.59895C25.0917 7.43004 25.0921 7.26351 25.0921 7.08181C25.0921 5.4965 24.866 4.22025 24.5022 3.20836C25.9624 3.38646 26.9346 4.99974 27.5603 6.8566ZM39.4129 9.67863C39.3775 9.42865 39.1522 9.29049 38.966 9.27532C38.7802 9.26014 34.8469 8.97702 34.8469 8.97702C34.8469 8.97702 32.1152 6.34267 31.8155 6.05116C31.5154 5.76006 30.9296 5.84831 30.7023 5.9134C30.6686 5.92298 30.1054 6.0919 29.1734 6.37182C28.2608 3.82133 26.6506 1.47729 23.8173 1.47729C23.7392 1.47729 23.6586 1.48048 23.5777 1.48488C22.7723 0.449824 21.7742 0.000190137 20.9122 0.000190137C14.3125 0.000190137 11.1594 8.01424 10.1708 12.087C7.6064 12.8589 5.78445 13.4075 5.55177 13.4786C4.11994 13.9147 4.07513 13.9586 3.88727 15.2688C3.74544 16.2607 0 44.3972 0 44.3972L29.1853 49.709L44.9992 46.3858C44.9992 46.3858 39.4478 9.92861 39.4129 9.67863Z" fill="#88C532"/>
<path d="M38.9665 9.27522C38.7807 9.26004 34.8474 8.97692 34.8474 8.97692C34.8474 8.97692 32.1157 6.34258 31.816 6.05147C31.7038 5.94245 31.5525 5.88695 31.3942 5.86299L29.1875 49.7085L44.9997 46.3857C44.9997 46.3857 39.4483 9.92891 39.4134 9.67853C39.378 9.42855 39.1527 9.29039 38.9665 9.27522Z" fill="#538F31"/>
<path d="M23.8171 17.762L21.8673 23.3961C21.8673 23.3961 20.1588 22.5104 18.0647 22.5104C14.9947 22.5104 14.8401 24.382 14.8401 24.8536C14.8401 27.4269 21.7452 28.4128 21.7452 34.4402C21.7452 39.1822 18.6493 42.2358 14.4742 42.2358C9.46385 42.2358 6.90234 39.207 6.90234 39.207L8.24373 34.9018C8.24373 34.9018 10.8772 37.0981 13.0995 37.0981C14.5511 37.0981 15.1422 35.9876 15.1422 35.1762C15.1422 31.8194 9.477 31.6697 9.477 26.1542C9.477 21.5121 12.9067 17.0197 19.8311 17.0197C22.4991 17.0197 23.8171 17.762 23.8171 17.762Z" fill="white"/>
</svg>
