<svg width="220" height="62" viewBox="0 0 220 62" fill="none" xmlns="http://www.w3.org/2000/svg">
<path d="M24.8556 2.06157C25.1972 2.06157 25.5412 2.17408 25.8705 2.39432C23.3346 3.55344 20.6163 6.47302 19.4684 12.3031C17.7906 12.8077 16.1508 13.3009 14.6347 13.7571C15.9793 9.31025 19.1722 2.06157 24.8556 2.06157ZM27.2067 4.22325C27.6931 5.40774 28.0096 7.1074 28.0096 9.40122C28.0096 9.51852 28.0086 9.62578 28.0076 9.73446C26.0814 10.3138 23.9896 10.9429 21.8924 11.5739C23.0699 7.15959 25.277 5.02759 27.2067 4.22325ZM33.0439 8.22056C32.1651 8.48485 31.166 8.78504 30.0831 9.11061C30.0841 8.90809 30.0846 8.70843 30.0846 8.49058C30.0846 6.58984 29.8135 5.05967 29.3773 3.84644C31.128 4.05998 32.2937 5.99425 33.0439 8.22056ZM47.2547 11.6041C47.2123 11.3044 46.9422 11.1387 46.7189 11.1205C46.4961 11.1023 41.7802 10.7629 41.7802 10.7629C41.7802 10.7629 38.505 7.60438 38.1457 7.25487C37.7859 6.90584 37.0835 7.01165 36.811 7.08969C36.7706 7.10118 36.0953 7.30371 34.9779 7.63933C33.8837 4.58138 31.9531 1.77095 28.5562 1.77095C28.4625 1.77095 28.3659 1.77478 28.2688 1.78004C27.3033 0.539054 26.1065 -4.52757e-05 25.073 -4.52757e-05C17.1602 -4.52757e-05 13.3798 9.60854 12.1944 14.4916C9.11981 15.4171 6.93536 16.0749 6.65638 16.1601C4.93967 16.683 4.88595 16.7356 4.6607 18.3065C4.49066 19.4958 0 53.2304 0 53.2304L34.9922 59.5991L53.9525 55.6147C53.9525 55.6147 47.2966 11.9038 47.2547 11.6041Z" fill="#88C532"/>
<path d="M46.7188 11.1205C46.496 11.1023 41.7802 10.7629 41.7802 10.7629C41.7802 10.7629 38.5049 7.60437 38.1456 7.25533C38.0111 7.12463 37.8297 7.05808 37.6399 7.02935L34.9941 59.5986L53.9524 55.6147C53.9524 55.6147 47.2965 11.9043 47.2546 11.6041C47.2122 11.3043 46.9421 11.1387 46.7188 11.1205Z" fill="#538F31"/>
<path d="M28.5556 21.2964L26.2178 28.0514C26.2178 28.0514 24.1694 26.9895 21.6587 26.9895C17.9778 26.9895 17.7925 29.2335 17.7925 29.7989C17.7925 32.8842 26.0714 34.0663 26.0714 41.293C26.0714 46.9784 22.3595 50.6396 17.3538 50.6396C11.3466 50.6396 8.27539 47.0081 8.27539 47.0081L9.88367 41.8464C9.88367 41.8464 13.0411 44.4797 15.7056 44.4797C17.446 44.4797 18.1547 43.1482 18.1547 42.1753C18.1547 38.1507 11.3623 37.9712 11.3623 31.3583C11.3623 25.7925 15.4744 20.4063 23.7766 20.4063C26.9754 20.4063 28.5556 21.2964 28.5556 21.2964Z" fill="white"/>
<path d="M76.0553 33.9602C74.1641 32.9634 73.1921 32.1236 73.1921 30.9688C73.1921 29.4994 74.5426 28.5548 76.6497 28.5548C79.1038 28.5548 81.2956 29.5521 81.2956 29.5521L83.0246 24.4091C83.0246 24.4091 81.4351 23.202 76.7576 23.202C70.2472 23.202 65.7363 26.823 65.7363 31.9139C65.7363 34.8 67.8434 37.0042 70.6528 38.5785C72.922 39.8376 73.7323 40.7301 73.7323 42.0424C73.7323 43.4069 72.5977 44.5086 70.4907 44.5086C67.3515 44.5086 64.3858 42.9344 64.3858 42.9344L62.5488 48.0774C62.5488 48.0774 65.2878 49.8613 69.8962 49.8613C76.596 49.8613 81.4036 46.6602 81.4036 40.8876C81.4036 37.7914 78.9727 35.5871 76.0553 33.9602Z" fill="#2B292D"/>
<path d="M102.743 23.1493C99.4478 23.1493 96.8548 24.6713 94.8556 26.9805L94.7477 26.9278L97.6108 12.3912H90.1555L82.916 49.3892H90.3714L92.857 36.7418C93.8294 31.966 96.3683 29.0272 98.7455 29.0272C100.42 29.0272 101.069 30.1289 101.069 31.7036C101.069 32.7004 100.96 33.9074 100.745 34.9047L97.9352 49.3892H105.391L108.308 34.4326C108.632 32.8579 108.849 30.9687 108.849 29.7095C108.849 25.616 106.633 23.1493 102.743 23.1493Z" fill="#2B292D"/>
<path d="M122.03 44.3507C119.491 44.3507 118.41 42.2517 118.41 39.628C118.41 35.4818 120.625 28.7119 124.677 28.7119C127.324 28.7119 128.189 30.9162 128.189 33.0678C128.189 37.5286 125.974 44.3507 122.03 44.3507ZM125.704 23.149C116.736 23.149 110.793 31.021 110.793 39.785C110.793 45.4006 114.358 49.9136 121.058 49.9136C129.864 49.9136 135.806 42.2517 135.806 33.2775C135.806 28.0823 132.673 23.149 125.704 23.149Z" fill="#2B292D"/>
<path d="M147.746 44.4564C145.81 44.4564 144.667 43.4074 144.667 43.4074L145.909 36.637C146.774 32.1241 149.205 29.1327 151.798 29.1327C154.067 29.1327 154.769 31.1794 154.769 33.1209C154.769 37.7918 151.906 44.4564 147.746 44.4564ZM154.878 23.1499C149.846 23.1499 146.99 27.4531 146.99 27.4531H146.882L147.314 23.5698H140.723C140.399 26.1939 139.804 30.1822 139.21 33.1736L134.023 59.6758H141.479L143.532 48.9698H143.694C143.694 48.9698 145.225 49.9145 148.071 49.9145C156.823 49.9145 162.549 41.2031 162.549 32.3864C162.549 27.5058 160.334 23.1499 154.878 23.1499Z" fill="#2B292D"/>
<path d="M173.198 12.7583C170.821 12.7583 168.93 14.5948 168.93 16.9566C168.93 19.1083 170.334 20.5781 172.441 20.5781H172.549C174.872 20.5781 176.871 19.0556 176.926 16.3797C176.926 14.2803 175.467 12.7583 173.198 12.7583Z" fill="#2B292D"/>
<path d="M162.77 49.3892H170.225L175.304 23.7267H167.794L162.77 49.3892Z" fill="#2B292D"/>
<path d="M194.265 23.674H189.079L189.349 22.467C189.781 20.0009 191.294 17.7966 193.779 17.7966C195.106 17.7966 196.156 18.1638 196.156 18.1638L197.615 12.496C197.615 12.496 196.318 11.8664 193.563 11.8664C190.916 11.8664 188.269 12.6013 186.269 14.2804C183.73 16.3799 182.542 19.4234 181.947 22.467L181.731 23.674H178.274L177.194 29.1321H180.651L176.707 49.3892H184.162L188.106 29.1321H193.239L194.265 23.674Z" fill="#2B292D"/>
<path d="M212.202 23.7265C212.202 23.7265 207.542 35.1334 205.449 41.3599H205.341C205.198 39.3553 203.504 23.7265 203.504 23.7265H195.67L200.154 47.29C200.262 47.8143 200.209 48.1293 199.992 48.497C199.128 50.1239 197.669 51.6981 195.94 52.8525C194.536 53.8498 192.969 54.4793 191.727 54.8992L193.779 61.0396C195.292 60.7245 198.426 59.5175 201.073 57.1035C204.476 54.0073 207.61 49.2315 210.851 42.7239L219.982 23.7265H212.202Z" fill="#2B292D"/>
</svg>
