<svg width="107" height="30" viewBox="0 0 107 30" fill="none" xmlns="http://www.w3.org/2000/svg">
<path fill-rule="evenodd" clip-rule="evenodd" d="M12.5835 1.16554C12.4234 1.05841 12.256 1.00369 12.0899 1.00369C9.32544 1.00369 7.7724 4.52948 7.11838 6.69247C7.70671 6.51541 8.33333 6.32694 8.97708 6.13333L9.46952 5.98521C10.0279 3.14944 11.35 1.72934 12.5835 1.16554ZM13.624 4.57373C13.624 3.458 13.4701 2.63128 13.2335 2.05513C12.2949 2.44637 11.2213 3.48339 10.6486 5.63054C11.6083 5.34177 12.5657 5.05383 13.4558 4.7861L13.623 4.73582C13.6235 4.68295 13.624 4.63078 13.624 4.57373ZM15.3031 4.23082C15.5759 4.14882 15.8334 4.0714 16.0727 3.99945C15.7078 2.91656 15.1408 1.97572 14.2893 1.87186C14.5014 2.46197 14.6333 3.20626 14.6333 4.13079C14.6333 4.23675 14.6331 4.33387 14.6326 4.43237C14.8645 4.36265 15.0885 4.29532 15.3031 4.23082ZM22.7243 5.41C22.8329 5.41885 22.9643 5.49942 22.9849 5.64521C23.0053 5.79099 26.2427 27.0522 26.2427 27.0522L17.0204 28.9902L0 25.8925C0 25.8925 2.18428 9.48376 2.26699 8.90529C2.37655 8.14121 2.40268 8.1156 3.2377 7.86129C3.37339 7.81984 4.43592 7.49986 5.93143 7.04971C6.508 4.67457 8.34681 0.000905048 12.1956 0.000905048C12.6984 0.000905048 13.2804 0.263124 13.7501 0.86675C13.7973 0.864188 13.8443 0.862327 13.8899 0.862327C15.5422 0.862327 16.4812 2.22933 17.0134 3.71673C17.5569 3.55348 17.8854 3.45498 17.905 3.44939C18.0376 3.41143 18.3792 3.35996 18.5543 3.52973C18.729 3.69973 20.3221 5.23604 20.3221 5.23604C20.3221 5.23604 22.6159 5.40115 22.7243 5.41ZM12.7527 13.6453L13.8898 10.3596C13.8898 10.3596 13.1212 9.92668 11.5652 9.92668C7.52705 9.92668 5.52689 12.5466 5.52689 15.2538C5.52689 17.0607 6.56949 17.8801 7.48332 18.5983C8.19623 19.1586 8.83076 19.6573 8.83076 20.5152C8.83076 20.9885 8.48601 21.6361 7.63948 21.6361C6.34345 21.6361 4.80767 20.3553 4.80767 20.3553L4.02539 22.8659C4.02539 22.8659 5.51922 24.6323 8.44118 24.6323C10.876 24.6323 12.6815 22.8515 12.6815 20.086C12.6815 17.9601 11.2084 16.9096 10.0442 16.0793C9.28344 15.5368 8.65455 15.0883 8.65455 14.4953C8.65455 14.2203 8.74469 13.1288 10.5351 13.1288C11.7563 13.1288 12.7527 13.6453 12.7527 13.6453Z" fill="white"/>
<path d="M22.7244 5.40926C22.6161 5.40041 20.3222 5.2353 20.3222 5.2353C20.3222 5.2353 18.7292 3.69899 18.5544 3.52922C18.4889 3.46564 18.4007 3.43327 18.3084 3.4193L17.0215 28.9893L26.2429 27.0515C26.2429 27.0515 23.0054 5.79048 22.985 5.64446C22.9644 5.49868 22.833 5.41811 22.7244 5.40926Z" fill="#EAEAEA"/>
<path d="M36.9932 16.5185C36.0733 16.0337 35.6005 15.6252 35.6005 15.0635C35.6005 14.3488 36.2574 13.8893 37.2823 13.8893C38.476 13.8893 39.5421 14.3744 39.5421 14.3744L40.3831 11.8728C40.3831 11.8728 39.61 11.2857 37.3348 11.2857C34.1681 11.2857 31.974 13.047 31.974 15.5232C31.974 16.927 32.9989 17.9992 34.3654 18.7649C35.4692 19.3774 35.8633 19.8114 35.8633 20.4498C35.8633 21.1135 35.3114 21.6493 34.2865 21.6493C32.7596 21.6493 31.3171 20.8836 31.3171 20.8836L30.4236 23.3852C30.4236 23.3852 31.7558 24.2529 33.9974 24.2529C37.2562 24.2529 39.5946 22.6959 39.5946 19.8881C39.5946 18.382 38.4122 17.3099 36.9932 16.5185Z" fill="white"/>
<path d="M49.9749 11.2602C48.372 11.2602 47.1107 12.0006 46.1383 13.1237L46.0858 13.0981L47.4784 6.02744H43.8521L40.3308 24.0234H43.9571L45.1661 17.8717C45.6392 15.5487 46.8741 14.1193 48.0303 14.1193C48.845 14.1193 49.1605 14.6552 49.1605 15.4211C49.1605 15.906 49.1077 16.493 49.0027 16.9781L47.6362 24.0234H51.2628L52.6815 16.7485C52.8393 15.9826 52.9445 15.0636 52.9445 14.4512C52.9445 12.46 51.8669 11.2602 49.9749 11.2602Z" fill="white"/>
<path d="M59.3565 21.5725C58.1213 21.5725 57.5958 20.5515 57.5958 19.2754C57.5958 17.2586 58.6732 13.9657 60.6441 13.9657C61.9315 13.9657 62.352 15.0379 62.352 16.0845C62.352 18.2542 61.2746 21.5725 59.3565 21.5725ZM61.1433 11.2599C56.7812 11.2599 53.8906 15.0889 53.8906 19.3518C53.8906 22.0832 55.6249 24.2783 58.8835 24.2783C63.1667 24.2783 66.0572 20.5515 66.0572 16.1865C66.0572 13.6595 64.5332 11.2599 61.1433 11.2599Z" fill="white"/>
<path d="M71.8641 21.6246C70.9224 21.6246 70.3662 21.1143 70.3662 21.1143L70.9706 17.8212C71.3911 15.6261 72.5735 14.171 73.835 14.171C74.9385 14.171 75.2802 15.1666 75.2802 16.1109C75.2802 18.3829 73.8875 21.6246 71.8641 21.6246ZM75.3329 11.261C72.8851 11.261 71.4961 13.3541 71.4961 13.3541H71.4436L71.6538 11.4652H68.448C68.2903 12.7416 68.0011 14.6815 67.712 16.1365L65.1892 29.0273H68.8158L69.8143 23.8199H69.8932C69.8932 23.8199 70.6376 24.2794 72.0218 24.2794C76.2789 24.2794 79.0642 20.0422 79.0642 15.7537C79.0642 13.3797 77.9868 11.261 75.3329 11.261Z" fill="white"/>
<path d="M84.2436 6.20614C83.0876 6.20614 82.1677 7.09947 82.1677 8.24826C82.1677 9.29482 82.851 10.0098 83.8759 10.0098H83.9284C85.0583 10.0098 86.0307 9.2692 86.057 7.96764C86.057 6.94646 85.3474 6.20614 84.2436 6.20614Z" fill="white"/>
<path d="M79.1719 24.0234H82.7984L85.2685 11.5411H81.6158L79.1719 24.0234Z" fill="white"/>
<path d="M94.4917 11.5155H91.9689L92.1003 10.9284C92.3105 9.72882 93.0463 8.65664 94.2553 8.65664C94.9007 8.65664 95.4113 8.83526 95.4113 8.83526L96.121 6.07843C96.121 6.07843 95.4902 5.77219 94.1501 5.77219C92.8624 5.77219 91.5748 6.12966 90.6024 6.94637C89.3672 7.96755 88.7892 9.44797 88.5001 10.9284L88.3951 11.5155H86.7133L86.1878 14.1703H87.8696L85.9512 24.0234H89.5775L91.4959 14.1703H93.9923L94.4917 11.5155Z" fill="white"/>
<path d="M103.216 11.5412C103.216 11.5412 100.949 17.0895 99.9315 20.1181H99.8789C99.8092 19.1431 98.9854 11.5412 98.9854 11.5412H95.175L97.3562 23.0026C97.4087 23.2576 97.3825 23.4108 97.2773 23.5897C96.8568 24.381 96.1474 25.1467 95.3064 25.7082C94.6234 26.1933 93.8612 26.4995 93.2568 26.7037L94.2554 29.6904C94.9911 29.5372 96.5154 28.9501 97.8028 27.7759C99.4584 26.2699 100.982 23.9469 102.559 20.7816L107 11.5412H103.216Z" fill="white"/>
</svg>
