<svg width="192" height="32" viewBox="0 0 192 32" fill="none" xmlns="http://www.w3.org/2000/svg">
<rect width="31.9996" height="31.9996" rx="3" fill="#00DCAB"/>
<path d="M29.3324 12.3487H19.1494L16.0041 2.66718L12.849 12.3487L2.66602 12.3389L10.9126 18.3285L7.7575 28.0002L16.0041 22.0205L24.2409 28.0002L21.0956 18.3285L29.3324 12.3487Z" fill="white"/>
<rect x="159.998" y="0.000244141" width="31.9996" height="31.9996" rx="3" fill="#00DCAB"/>
<path d="M189.33 12.349H179.147L176.002 2.66742L172.847 12.349L162.664 12.3391L170.911 18.3287L167.756 28.0005L176.002 22.0207L184.239 28.0005L181.094 18.3287L189.33 12.349Z" fill="white"/>
<rect x="119.998" y="0.000244141" width="31.9996" height="31.9996" rx="3" fill="#00DCAB"/>
<path d="M149.33 12.349H139.147L136.002 2.66742L132.847 12.349L122.664 12.3391L130.911 18.3287L127.756 28.0005L136.002 22.0207L144.239 28.0005L141.094 18.3287L149.33 12.349Z" fill="white"/>
<rect x="80" y="0.000244141" width="31.9996" height="31.9996" rx="3" fill="#00DCAB"/>
<path d="M109.332 12.349H99.1494L96.0041 2.66742L92.849 12.349L82.666 12.3391L90.9126 18.3287L87.7575 28.0005L96.0041 22.0207L104.241 28.0005L101.096 18.3287L109.332 12.349Z" fill="white"/>
<rect x="40" y="0.000244141" width="31.9996" height="31.9996" rx="3" fill="#00DCAB"/>
<path d="M69.3324 12.349H59.1494L56.0041 2.66742L52.849 12.349L42.666 12.3391L50.9126 18.3287L47.7575 28.0005L56.0041 22.0207L64.2409 28.0005L61.0956 18.3287L69.3324 12.349Z" fill="white"/>
</svg>
