<svg width="387" height="37" viewBox="0 0 387 37" fill="none" xmlns="http://www.w3.org/2000/svg">
<rect x="195" width="31.9996" height="31.9996" rx="3" fill="#00DCAB"/>
<path d="M224.332 12.3485H214.149L211.004 2.66699L207.849 12.3485L197.666 12.3387L205.913 18.3283L202.757 28L211.004 22.0203L219.241 28L216.096 18.3283L224.332 12.3485Z" fill="white"/>
<rect x="354.998" y="0.000488281" width="31.9996" height="31.9996" rx="3" fill="#00DCAB"/>
<path d="M384.33 12.349H374.147L371.002 2.66748L367.847 12.349L357.664 12.3392L365.911 18.3288L362.756 28.0005L371.002 22.0208L379.239 28.0005L376.094 18.3288L384.33 12.349Z" fill="white"/>
<rect x="314.998" y="0.000488281" width="31.9996" height="31.9996" rx="3" fill="#00DCAB"/>
<path d="M344.33 12.349H334.147L331.002 2.66748L327.847 12.349L317.664 12.3392L325.911 18.3288L322.756 28.0005L331.002 22.0208L339.239 28.0005L336.094 18.3288L344.33 12.349Z" fill="white"/>
<rect x="275" y="0.000488281" width="31.9996" height="31.9996" rx="3" fill="#00DCAB"/>
<path d="M304.332 12.349H294.149L291.004 2.66748L287.849 12.349L277.666 12.3392L285.913 18.3288L282.757 28.0005L291.004 22.0208L299.241 28.0005L296.096 18.3288L304.332 12.349Z" fill="white"/>
<rect x="235" y="0.000488281" width="31.9996" height="31.9996" rx="3" fill="#00DCAB"/>
<path d="M264.332 12.349H254.149L251.004 2.66748L247.849 12.349L237.666 12.3392L245.913 18.3288L242.757 28.0005L251.004 22.0208L259.241 28.0005L256.096 18.3288L264.332 12.349Z" fill="white"/>
<path d="M37.1363 5.01709H56.8539V8.82798H49.1009V30.2509H44.8377V8.82798H37.1191V5.01709H37.1363ZM56.0115 11.98H59.6559V15.5059H59.7247C59.845 15.0073 60.0685 14.5265 60.3951 14.0635C60.7218 13.6005 61.1171 13.1553 61.5813 12.7813C62.0454 12.3896 62.5611 12.0868 63.1284 11.8375C63.6957 11.606 64.2802 11.4814 64.8647 11.4814C65.3116 11.4814 65.6383 11.4992 65.8102 11.517C65.9821 11.5348 66.154 11.5704 66.3431 11.5882V15.4703C66.068 15.4169 65.793 15.3813 65.5007 15.3457C65.2085 15.3101 64.9334 15.2922 64.6584 15.2922C64.0051 15.2922 63.3863 15.4347 62.8018 15.7018C62.2173 15.9689 61.7188 16.3785 61.289 16.895C60.8593 17.4292 60.5155 18.0703 60.2576 18.8538C59.9998 19.6374 59.8794 20.5278 59.8794 21.5428V30.2331H55.9944V11.98H56.0115ZM84.204 30.2509H80.3877V27.7043H80.319C79.8376 28.6304 79.1328 29.3605 78.1874 29.9125C77.2419 30.4646 76.2792 30.7495 75.2993 30.7495C72.9786 30.7495 71.2939 30.1618 70.2625 28.9687C69.2311 27.7756 68.7154 25.977 68.7154 23.5729V11.98H72.6004V23.1811C72.6004 24.7838 72.8927 25.9236 73.4943 26.5824C74.0788 27.2413 74.9212 27.5797 75.987 27.5797C76.8121 27.5797 77.4825 27.455 78.0326 27.1879C78.5827 26.9208 79.0297 26.5824 79.3563 26.1372C79.7001 25.7099 79.9408 25.1756 80.0955 24.5702C80.2502 23.9647 80.319 23.3058 80.319 22.5935V11.9978H84.204V30.2509ZM90.8224 24.3921C90.9427 25.5674 91.3725 26.3866 92.1117 26.8674C92.8681 27.3304 93.762 27.5797 94.8106 27.5797C95.1716 27.5797 95.5842 27.5441 96.0483 27.4906C96.5125 27.4372 96.9594 27.3126 97.3548 27.1523C97.7674 26.992 98.094 26.7427 98.3691 26.4222C98.6269 26.1016 98.7472 25.692 98.73 25.1756C98.7129 24.6592 98.5238 24.2318 98.18 23.9113C97.8361 23.5729 97.4064 23.3236 96.8735 23.1099C96.3406 22.914 95.7389 22.7359 95.0513 22.5935C94.3636 22.451 93.676 22.2907 92.9712 22.1305C92.2492 21.9702 91.5444 21.7565 90.874 21.525C90.2035 21.2935 89.6019 20.973 89.069 20.5634C88.5361 20.1716 88.1063 19.6552 87.7969 19.0319C87.4702 18.4086 87.3155 17.6429 87.3155 16.7169C87.3155 15.7196 87.5562 14.9005 88.0203 14.2238C88.4845 13.5471 89.0862 13.0128 89.791 12.6033C90.513 12.1937 91.3037 11.9087 92.1805 11.7307C93.0572 11.5704 93.8995 11.4814 94.6903 11.4814C95.6014 11.4814 96.4781 11.5882 97.3032 11.7841C98.1284 11.98 98.8848 12.3005 99.5552 12.7635C100.226 13.2087 100.776 13.7964 101.223 14.5087C101.67 15.221 101.945 16.0936 102.065 17.1086H98.008C97.819 16.147 97.4064 15.4881 96.736 15.1676C96.0655 14.8292 95.2919 14.669 94.4324 14.669C94.1574 14.669 93.8307 14.6868 93.4526 14.7402C93.0744 14.7936 92.7305 14.8827 92.3867 15.0073C92.0601 15.132 91.7851 15.3279 91.5444 15.5772C91.3209 15.8265 91.2006 16.147 91.2006 16.5566C91.2006 17.0552 91.3725 17.447 91.6991 17.7497C92.0257 18.0525 92.4555 18.3018 92.9884 18.5155C93.5213 18.7114 94.123 18.8894 94.8106 19.0319C95.4982 19.1744 96.203 19.3346 96.925 19.4949C97.6299 19.6552 98.3175 19.8689 99.0051 20.1004C99.6927 20.3319 100.294 20.6524 100.827 21.062C101.36 21.4716 101.79 21.9702 102.117 22.5757C102.443 23.1811 102.615 23.9469 102.615 24.8373C102.615 25.9236 102.374 26.8318 101.893 27.5975C101.412 28.3454 100.793 28.9687 100.037 29.4317C99.2801 29.8947 98.4206 30.2509 97.4923 30.4646C96.564 30.6783 95.6358 30.7851 94.7247 30.7851C93.6073 30.7851 92.5758 30.6604 91.6304 30.3933C90.6849 30.1262 89.8597 29.7344 89.1721 29.218C88.4845 28.6838 87.9344 28.0249 87.539 27.2413C87.1436 26.4578 86.9373 25.514 86.903 24.4277H90.8224V24.3921ZM103.647 11.98H106.586V6.49515H110.471V11.98H113.978V14.9895H110.471V24.7482C110.471 25.1756 110.488 25.5318 110.523 25.8523C110.557 26.1551 110.643 26.4222 110.763 26.6359C110.884 26.8496 111.073 27.0098 111.331 27.1167C111.589 27.2235 111.915 27.277 112.362 27.277C112.637 27.277 112.912 27.277 113.187 27.2591C113.462 27.2413 113.737 27.2057 114.012 27.1345V30.2509C113.583 30.3043 113.153 30.3399 112.758 30.3933C112.345 30.4468 111.932 30.4646 111.503 30.4646C110.471 30.4646 109.646 30.3577 109.027 30.1618C108.408 29.9659 107.91 29.6632 107.566 29.2714C107.205 28.8797 106.982 28.3988 106.844 27.8112C106.724 27.2235 106.638 26.5468 106.621 25.7989V15.0251H103.681V11.98H103.647ZM116.729 11.98H120.407V14.4553H120.476C121.026 13.3868 121.783 12.6389 122.762 12.1759C123.742 11.7129 124.791 11.4814 125.943 11.4814C127.335 11.4814 128.538 11.7307 129.57 12.2471C130.601 12.7457 131.461 13.4402 132.148 14.3306C132.836 15.221 133.335 16.2539 133.678 17.4292C134.022 18.6045 134.194 19.8689 134.194 21.2045C134.194 22.4332 134.039 23.6263 133.73 24.766C133.421 25.9236 132.956 26.9386 132.338 27.829C131.719 28.7194 130.928 29.4139 129.965 29.9481C129.003 30.4824 127.885 30.7495 126.579 30.7495C126.011 30.7495 125.444 30.6961 124.877 30.5892C124.31 30.4824 123.759 30.3043 123.244 30.0728C122.728 29.8413 122.23 29.5386 121.8 29.1646C121.353 28.7906 120.992 28.3632 120.682 27.8824H120.614V37.0001H116.729V11.98ZM130.309 21.1332C130.309 20.3141 130.206 19.5127 130 18.7292C129.793 17.9456 129.484 17.2689 129.071 16.6634C128.659 16.058 128.143 15.5772 127.541 15.221C126.923 14.8649 126.218 14.669 125.427 14.669C123.794 14.669 122.556 15.2566 121.731 16.4319C120.906 17.6073 120.493 19.1744 120.493 21.1332C120.493 22.0592 120.596 22.914 120.82 23.6976C121.043 24.4811 121.353 25.1578 121.8 25.7277C122.23 26.2975 122.745 26.7427 123.347 27.0633C123.949 27.4016 124.653 27.5619 125.444 27.5619C126.338 27.5619 127.077 27.366 127.696 26.992C128.315 26.6181 128.813 26.1194 129.209 25.5318C129.604 24.9263 129.896 24.2496 130.068 23.4839C130.223 22.7181 130.309 21.9346 130.309 21.1332ZM137.168 5.01709H141.053V8.82798H137.168V5.01709ZM137.168 11.98H141.053V30.2509H137.168V11.98ZM144.526 5.01709H148.411V30.2509H144.526V5.01709ZM160.324 30.7495C158.914 30.7495 157.659 30.5002 156.559 30.0194C155.459 29.5386 154.531 28.8619 153.757 28.0249C153.001 27.1701 152.416 26.1551 152.021 24.9797C151.625 23.8044 151.419 22.5044 151.419 21.0976C151.419 19.7086 151.625 18.4264 152.021 17.2511C152.416 16.0758 153.001 15.0607 153.757 14.206C154.513 13.3512 155.459 12.6923 156.559 12.2115C157.659 11.7307 158.914 11.4814 160.324 11.4814C161.733 11.4814 162.988 11.7307 164.088 12.2115C165.189 12.6923 166.117 13.369 166.891 14.206C167.647 15.0607 168.231 16.0758 168.627 17.2511C169.022 18.4264 169.228 19.7086 169.228 21.0976C169.228 22.5044 169.022 23.8044 168.627 24.9797C168.231 26.1551 167.647 27.1701 166.891 28.0249C166.134 28.8797 165.189 29.5386 164.088 30.0194C162.988 30.5002 161.733 30.7495 160.324 30.7495ZM160.324 27.5619C161.183 27.5619 161.94 27.366 162.576 26.992C163.212 26.6181 163.728 26.1194 164.14 25.514C164.553 24.9085 164.845 24.214 165.051 23.4483C165.24 22.6825 165.343 21.899 165.343 21.0976C165.343 20.3141 165.24 19.5483 165.051 18.7648C164.862 17.9812 164.553 17.3045 164.14 16.6991C163.728 16.0936 163.212 15.6128 162.576 15.2388C161.94 14.8649 161.183 14.669 160.324 14.669C159.464 14.669 158.708 14.8649 158.072 15.2388C157.436 15.6128 156.92 16.1114 156.507 16.6991C156.095 17.3045 155.803 17.9812 155.596 18.7648C155.407 19.5483 155.304 20.3141 155.304 21.0976C155.304 21.899 155.407 22.6825 155.596 23.4483C155.785 24.214 156.095 24.9085 156.507 25.514C156.92 26.1194 157.436 26.6181 158.072 26.992C158.708 27.3838 159.464 27.5619 160.324 27.5619ZM170.363 11.98H173.303V6.49515H177.188V11.98H180.695V14.9895H177.188V24.7482C177.188 25.1756 177.205 25.5318 177.239 25.8523C177.274 26.1551 177.36 26.4222 177.48 26.6359C177.6 26.8496 177.789 27.0098 178.047 27.1167C178.305 27.2235 178.632 27.277 179.079 27.277C179.354 27.277 179.629 27.277 179.904 27.2591C180.179 27.2413 180.454 27.2057 180.729 27.1345V30.2509C180.299 30.3043 179.869 30.3399 179.474 30.3933C179.061 30.4468 178.649 30.4646 178.219 30.4646C177.188 30.4646 176.363 30.3577 175.744 30.1618C175.125 29.9659 174.626 29.6632 174.283 29.2714C173.921 28.8797 173.698 28.3988 173.561 27.8112C173.44 27.2235 173.354 26.5468 173.337 25.7989V15.0251H170.397V11.98H170.363Z" fill="white"/>
<path d="M33 12.2295H20.3985L16.5061 0L12.6015 12.2295L0 12.2171L10.2053 19.7829L6.30077 32L16.5061 24.4465L26.6992 32L22.8069 19.7829L33 12.2295Z" fill="#00DCAB"/>
</svg>
